<svg width="190" height="48" viewBox="0 0 190 48" fill="none" xmlns="http://www.w3.org/2000/svg">
<path d="M23.9999 3.8147e-05C36.9919 3.8147e-05 47.9999 7.04004 47.9999 23.04C47.9999 39.04 36.9919 47.04 23.9999 47.04C11.0079 47.04 -5.65052e-05 39.04 -5.65052e-05 23.04C-5.65052e-05 7.04004 11.0079 3.8147e-05 23.9999 3.8147e-05ZM25.9839 46.08C38.0159 46.08 41.9839 34.048 41.9839 23.04C41.9839 7.04004 30.9759 1.02404 22.0159 1.02404C9.98394 1.02404 5.95194 12.032 5.95194 23.04C5.95194 39.04 16.9599 46.08 25.9839 46.08ZM102.567 12.032L108.583 11.008V46.08L102.567 47.04V24.064C95.5914 24.064 89.5754 28.032 82.5354 28.032V46.08L76.5834 47.04V12.032L82.5354 11.008V27.072C89.5754 27.072 95.5914 23.04 102.567 23.04V12.032ZM145.444 12.032L151.46 11.008V46.08L145.444 47.04V43.2C141.988 45.824 137.764 47.168 133.412 47.04C123.428 47.04 115.428 41.088 115.428 29.056C115.428 17.024 123.428 11.008 133.412 11.008C137.764 10.88 141.988 12.288 145.444 14.912V12.032ZM135.396 46.08C139.428 45.888 143.14 43.84 145.444 40.576V18.496C141.796 14.592 136.74 12.288 131.428 12.032C123.428 12.032 121.38 21.056 121.38 29.056C121.38 41.088 129.38 46.08 135.396 46.08ZM188.319 40.064L189.279 42.048C186.271 45.056 180.447 47.04 176.287 47.04C166.303 47.04 158.303 41.088 158.303 29.056C158.303 17.024 166.303 11.008 176.287 11.008C180.191 10.944 184.031 12.032 187.295 14.144L185.375 18.24C182.943 14.464 178.783 12.16 174.303 12.032C166.303 12.032 164.255 21.056 164.255 29.056C164.255 41.088 172.319 46.08 178.271 46.08C182.367 45.76 186.079 43.52 188.319 40.064Z" fill="#1F2D1A"/>
</svg>
