<svg width="448" height="48" viewBox="0 0 448 48" fill="none" xmlns="http://www.w3.org/2000/svg">
<path d="M40.64 42.24L36.928 47.232L18.752 25.6L0.704006 47.04L5.96046e-06 46.4L18.112 24.768L1.53601 5.056L5.24801 0.064003L22.016 20.096L38.848 0.064003L39.616 0.704002L22.72 20.928L40.64 42.24ZM80.6125 1.088L86.6285 0.064003V46.144L80.6125 47.104V11.2L53.5405 45.952V46.144L47.5885 47.104V1.088L53.5405 0.064003V44.352L80.6125 9.536V1.088ZM125.054 1.088L131.07 0.064003V6.08L125.054 7.104V2.112H115.07V46.144L109.054 47.104V2.112H99.0055V6.08L93.0535 7.104V1.088L99.0055 0.064003V1.088H109.054L115.07 0.064003V1.088H125.054ZM182.329 1.088L188.345 0.064003V46.144L182.329 47.104V1.088ZM163.321 19.136C172.281 19.136 180.345 22.912 180.345 33.088C180.345 43.328 172.921 47.104 156.345 47.104C151.225 47.104 143.289 46.144 143.289 46.144L137.337 47.104V1.088L143.289 0.064003V23.04C150.649 22.464 155.577 19.136 163.321 19.136ZM157.305 46.144C170.041 46.144 174.329 39.488 174.329 33.152C174.329 25.152 169.273 20.544 163.321 20.096C155.577 20.096 150.649 23.488 143.289 24V45.12C143.289 45.12 152.249 46.144 157.305 46.144ZM242.102 0.064003C255.094 0.064003 266.102 7.104 266.102 23.104C266.102 39.104 255.094 47.104 242.102 47.104C229.11 47.104 218.102 39.104 218.102 23.104C218.102 7.104 229.11 0.064003 242.102 0.064003ZM244.086 46.144C256.118 46.144 260.086 34.112 260.086 23.104C260.086 7.104 249.078 1.088 240.118 1.088C228.086 1.088 224.054 12.096 224.054 23.104C224.054 39.104 235.062 46.144 244.086 46.144ZM312.414 37.12L314.142 40.32C309.406 44.864 303.006 47.36 296.414 47.104C283.422 47.104 272.414 39.104 272.414 23.104C272.414 7.104 283.422 0.064003 296.414 0.064003C301.726 0 306.91 1.472 311.262 4.48L309.534 8.512C305.886 3.904 300.318 1.152 294.43 1.088C282.398 1.088 278.366 12.096 278.366 23.104C278.366 39.104 289.374 46.144 298.398 46.144C304.414 46.016 309.79 42.496 312.414 37.12ZM345.674 1.088L351.626 0.064003V6.08L345.674 7.104V2.112H326.602V23.104C332.874 22.72 338.314 19.136 344.65 19.136V20.096C338.314 20.096 332.874 23.68 326.602 24.064V45.12H345.674V43.136L351.626 42.112V46.144L345.674 47.104V46.144H326.602L320.65 47.104V1.088L326.602 0.064003V1.088H345.674ZM392.049 1.088L398.065 0.064003V46.144L392.049 47.104V20.096C382.577 20.096 374.449 24.128 364.977 24.128V46.144L359.025 47.104V1.088L364.977 0.064003V23.104C374.449 23.104 382.577 19.136 392.049 19.136V1.088ZM441.05 1.088L447.066 0.064003V46.144L441.05 47.104V11.2L413.978 45.952V46.144L408.026 47.104V1.088L413.978 0.064003V44.352L441.05 9.536V1.088Z" fill="#1F2D1A"/>
</svg>
