<svg width="263" height="92" viewBox="0 0 263 92" fill="none" xmlns="http://www.w3.org/2000/svg">
<path d="M37.1763 21.496L38.6643 21.24V22.744L37.1763 23V21.752H32.4083V27C33.9763 26.904 35.3363 26.008 36.9203 26.008V26.248C35.3363 26.248 33.9763 27.144 32.4083 27.24V32.504H37.1763V32.008L38.6643 31.752V32.76L37.1763 33V32.76H32.4083L30.9203 33V21.496L32.4083 21.24V21.496H37.1763ZM46.9413 31.256L47.1813 31.752C46.4293 32.504 44.9733 33 43.9333 33C41.4373 33 39.4373 31.512 39.4373 28.504C39.4373 25.496 41.4373 23.992 43.9333 23.992C44.9093 23.976 45.8693 24.248 46.6853 24.776L46.2053 25.8C45.5973 24.856 44.5573 24.28 43.4373 24.248C41.4373 24.248 40.9253 26.504 40.9253 28.504C40.9253 31.512 42.9413 32.76 44.4293 32.76C45.4533 32.68 46.3813 32.12 46.9413 31.256ZM54.3941 24.248L55.8981 23.992V32.76L54.3941 33V24.504H50.3621C50.1861 26.328 50.1221 28.168 50.1381 30.008C50.1381 32.008 49.1301 33 47.8821 33L47.6421 32.76C48.8901 32.76 49.8821 32.008 49.8821 29.752C49.8501 27.912 49.9461 26.072 50.1381 24.248H54.3941ZM64.3626 24.248L65.8666 23.992V32.76L64.3626 33V26.696L59.3546 32.68V32.76L57.8666 33V24.248L59.3546 23.992V32.296L64.3626 26.296V24.248ZM77.2926 23.992C79.7886 23.992 81.8046 25.496 81.8046 28.504C81.8046 31.512 79.7886 33 77.2926 33C74.7966 33 72.7966 31.512 72.7966 28.504C72.7966 25.496 74.7966 23.992 77.2926 23.992ZM77.7886 32.76C79.7886 32.76 80.3006 30.504 80.3006 28.504C80.3006 25.496 78.3006 24.248 76.7966 24.248C74.7966 24.248 74.2846 26.504 74.2846 28.504C74.2846 31.512 76.2846 32.76 77.7886 32.76ZM90.6444 31.256L90.8844 31.752C90.1324 32.504 88.6764 33 87.6364 33C85.1404 33 83.1404 31.512 83.1404 28.504C83.1404 25.496 85.1404 23.992 87.6364 23.992C88.6124 23.976 89.5724 24.248 90.3884 24.776L89.9084 25.8C89.3004 24.856 88.2604 24.28 87.1404 24.248C85.1404 24.248 84.6284 26.504 84.6284 28.504C84.6284 31.512 86.6444 32.76 88.1324 32.76C89.1564 32.68 90.0844 32.12 90.6444 31.256ZM99.4093 24.248V24.504H96.1613V32.76L94.6573 33V24.504H91.4093V24.248H94.6573L96.1613 23.992V24.248H99.4093ZM107.223 24.248L108.727 23.992V32.76L107.223 33V32.04C106.359 32.696 105.303 33.032 104.215 33C101.719 33 99.7185 31.512 99.7185 28.504C99.7185 25.496 101.719 23.992 104.215 23.992C105.303 23.96 106.359 24.312 107.223 24.968V24.248ZM104.711 32.76C105.719 32.712 106.647 32.2 107.223 31.384V25.864C106.311 24.888 105.047 24.312 103.719 24.248C101.719 24.248 101.207 26.504 101.207 28.504C101.207 31.512 103.207 32.76 104.711 32.76ZM116.535 24.248L118.039 23.992V32.76L116.535 33V24.504H112.503C112.327 26.328 112.263 28.168 112.279 30.008C112.279 32.008 111.271 33 110.023 33L109.783 32.76C111.031 32.76 112.023 32.008 112.023 29.752C111.991 27.912 112.087 26.072 112.279 24.248H116.535ZM126.503 24.248L128.007 23.992V32.76L126.503 33V26.696L121.495 32.68V32.76L120.007 33V24.248L121.495 23.992V32.296L126.503 26.296V24.248ZM137.16 31.256L137.4 31.752C136.648 32.504 135.192 33 134.152 33C131.656 33 129.656 31.512 129.656 28.504C129.656 25.496 131.656 23.992 134.152 23.992C135.128 23.976 136.088 24.248 136.904 24.776L136.424 25.8C135.816 24.856 134.776 24.28 133.656 24.248C131.656 24.248 131.144 26.504 131.144 28.504C131.144 31.512 133.16 32.76 134.648 32.76C135.672 32.68 136.6 32.12 137.16 31.256ZM142.773 27.496C145.029 27.496 146.773 28.248 146.773 30.248C146.773 32.264 144.773 33 142.517 33C141.765 33.032 140.997 32.952 140.261 32.76L138.773 33V24.248L140.261 23.992V27.864C140.741 27.656 141.525 27.496 142.773 27.496ZM142.517 32.76C144.517 32.76 145.269 31.512 145.269 30.248C145.269 28.6 144.277 27.752 142.517 27.752C141.269 27.752 140.469 28.104 140.261 28.504V32.504C140.997 32.696 141.765 32.776 142.517 32.76ZM160.259 27.704C161.379 28.056 162.259 28.84 162.259 30.248C162.259 32.264 160.755 33 157.507 33C156.659 32.984 155.827 32.888 154.995 32.76L153.507 33V24.248L154.995 23.992H158.499C160.035 23.992 161.763 24.504 161.763 25.992C161.763 27.192 160.963 27.592 160.259 27.704ZM154.995 24.248V27.496H158.755C159.763 27.496 160.259 27 160.259 25.992C160.259 24.744 159.251 24.248 158.259 24.248H154.995ZM157.507 32.76C160.003 32.76 160.755 31.512 160.755 30.248C160.755 28.6 159.763 27.752 158.499 27.752H154.995V32.504C155.827 32.648 156.659 32.728 157.507 32.76ZM168.105 23.992C170.601 23.992 172.617 25.496 172.617 28.504C172.617 31.512 170.601 33 168.105 33C165.609 33 163.609 31.512 163.609 28.504C163.609 25.496 165.609 23.992 168.105 23.992ZM168.601 32.76C170.601 32.76 171.113 30.504 171.113 28.504C171.113 25.496 169.113 24.248 167.609 24.248C165.609 24.248 165.097 26.504 165.097 28.504C165.097 31.512 167.097 32.76 168.601 32.76ZM180.769 24.248L182.273 23.992V32.76L180.769 33V24.504H175.761V32.76L174.273 33V24.248H180.769ZM188.738 23.992C191.234 23.992 193.25 25.496 193.25 28.504C193.25 31.512 191.234 33 188.738 33C187.65 33.032 186.594 32.696 185.73 32.04V35.768L184.242 36.008V24.504L185.73 24.248V24.968C186.594 24.312 187.65 23.96 188.738 23.992ZM189.234 32.76C191.234 32.76 191.746 30.504 191.746 28.504C191.746 25.496 189.746 24.248 188.242 24.248C187.234 24.296 186.306 24.792 185.73 25.624V31.128C186.642 32.104 187.906 32.696 189.234 32.76ZM199.074 23.992C201.57 23.992 203.586 25.496 203.586 28.504C203.586 31.512 201.57 33 199.074 33C196.578 33 194.578 31.512 194.578 28.504C194.578 25.496 196.578 23.992 199.074 23.992ZM199.57 32.76C201.57 32.76 202.082 30.504 202.082 28.504C202.082 25.496 200.082 24.248 198.578 24.248C196.578 24.248 196.066 26.504 196.066 28.504C196.066 31.512 198.066 32.76 199.57 32.76ZM212.426 31.256L212.666 31.752C211.914 32.504 210.458 33 209.418 33C206.922 33 204.922 31.512 204.922 28.504C204.922 25.496 206.922 23.992 209.418 23.992C210.394 23.976 211.354 24.248 212.17 24.776L211.69 25.8C211.082 24.856 210.042 24.28 208.922 24.248C206.922 24.248 206.41 26.504 206.41 28.504C206.41 31.512 208.426 32.76 209.914 32.76C210.938 32.68 211.866 32.12 212.426 31.256ZM218.039 27.496C220.295 27.496 222.039 28.248 222.039 30.248C222.039 32.264 220.039 33 217.783 33C217.031 33.032 216.263 32.952 215.527 32.76L214.039 33V24.248L215.527 23.992V27.864C216.007 27.656 216.791 27.496 218.039 27.496ZM217.783 32.76C219.783 32.76 220.535 31.512 220.535 30.248C220.535 28.6 219.543 27.752 217.783 27.752C216.535 27.752 215.735 28.104 215.527 28.504V32.504C216.263 32.696 217.031 32.776 217.783 32.76ZM222.535 24.248L224.039 23.992V32.76L222.535 33V24.248ZM226.535 31.512C226.727 31.512 226.919 31.592 227.063 31.72C227.207 31.864 227.287 32.056 227.287 32.264C227.287 33.256 226.775 34.008 225.783 34.008V33.752C226.215 33.752 226.471 33.56 226.519 33C226.103 33 225.767 32.664 225.783 32.248C225.783 31.832 226.119 31.496 226.535 31.512ZM76.1126 60.248L77.6166 59.992V68.76L76.1126 69V60.504H71.1046V68.76L69.6166 69V60.248H76.1126ZM83.7614 59.992C86.2574 59.992 88.2734 61.496 88.2734 64.504C88.2734 67.512 86.2574 69 83.7614 69C81.2654 69 79.2654 67.512 79.2654 64.504C79.2654 61.496 81.2654 59.992 83.7614 59.992ZM84.2574 68.76C86.2574 68.76 86.7694 66.504 86.7694 64.504C86.7694 61.496 84.7694 60.248 83.2654 60.248C81.2654 60.248 80.7534 62.504 80.7534 64.504C80.7534 67.512 82.7534 68.76 84.2574 68.76ZM94.8091 63.704C95.9451 64.056 96.8251 64.84 96.8251 66.248C96.8251 68.264 94.7611 69 92.5691 69C90.2491 69 89.2571 68.008 89.2571 68.008L89.4971 67.512C90.3291 68.28 91.4331 68.728 92.5691 68.76C94.5051 68.76 95.3211 67.512 95.3211 66.248C95.3211 64.6 94.3131 63.752 93.0651 63.752H91.7531V63.496H93.3211C94.3131 63.496 94.8091 63 94.8091 61.992C94.8091 60.744 93.7531 60.248 92.3131 60.248C91.5611 60.232 90.8251 60.504 90.2491 61L89.9931 60.504C89.9931 60.504 90.7451 59.992 92.5691 59.992C94.5051 59.992 96.3131 60.504 96.3131 61.992C96.3131 63.192 95.5131 63.592 94.8091 63.704ZM105.228 63.704C106.348 64.056 107.228 64.84 107.228 66.248C107.228 68.264 105.724 69 102.476 69C101.628 68.984 100.796 68.888 99.964 68.76L98.476 69V60.248L99.964 59.992H103.468C105.004 59.992 106.732 60.504 106.732 61.992C106.732 63.192 105.932 63.592 105.228 63.704ZM99.964 60.248V63.496H103.724C104.732 63.496 105.228 63 105.228 61.992C105.228 60.744 104.22 60.248 103.228 60.248H99.964ZM102.476 68.76C104.972 68.76 105.724 67.512 105.724 66.248C105.724 64.6 104.732 63.752 103.468 63.752H99.964V68.504C100.796 68.648 101.628 68.728 102.476 68.76ZM113.074 59.992C115.57 59.992 117.586 61.496 117.586 64.504C117.586 67.512 115.57 69 113.074 69C110.578 69 108.578 67.512 108.578 64.504C108.578 61.496 110.578 59.992 113.074 59.992ZM113.57 68.76C115.57 68.76 116.082 66.504 116.082 64.504C116.082 61.496 114.082 60.248 112.578 60.248C110.578 60.248 110.066 62.504 110.066 64.504C110.066 67.512 112.066 68.76 113.57 68.76ZM125.738 60.248L127.242 59.992V68.76L125.738 69V63.256C123.994 63.256 122.49 64.248 120.73 64.248V68.76L119.242 69V60.248L120.73 59.992V64.008C122.49 64.008 123.994 63 125.738 63V60.248ZM135.706 60.248L137.21 59.992V68.76L135.706 69V62.696L130.698 68.68V68.76L129.21 69V60.248L130.698 59.992V68.296L135.706 62.296V60.248ZM146.331 60.248V60.504H143.083V68.76L141.579 69V60.504H138.331V60.248H141.579L143.083 59.992V60.248H146.331ZM151.632 68.76C152.656 68.68 153.584 68.12 154.144 67.256L154.384 67.752C153.632 68.504 152.176 69.016 151.136 69.016C148.784 69.016 146.864 67.672 146.656 65C146.64 64.84 146.64 64.68 146.64 64.504C146.64 61.496 148.64 59.992 151.136 59.992C151.264 59.992 151.408 60.008 151.536 60.008C151.584 60.008 151.632 60.024 151.68 60.024C151.76 60.04 151.84 60.04 151.92 60.056C151.984 60.056 152.032 60.072 152.096 60.072C152.16 60.088 152.224 60.104 152.288 60.12C152.352 60.136 152.416 60.152 152.48 60.152C152.544 60.168 152.592 60.184 152.656 60.2C152.72 60.216 152.784 60.248 152.832 60.264C152.896 60.28 152.944 60.296 153.008 60.328C153.056 60.344 153.12 60.376 153.184 60.392C153.232 60.424 153.28 60.44 153.328 60.456C153.392 60.488 153.456 60.52 153.504 60.552C153.552 60.584 153.6 60.6 153.648 60.632C153.712 60.664 153.76 60.696 153.808 60.728C153.84 60.744 153.872 60.76 153.888 60.776C154.8 61.416 155.408 62.408 155.552 63.496H154.144C152.032 63.496 150.224 64.424 148.128 64.488V64.504C148.128 67.512 150.128 68.76 151.632 68.76ZM150.64 60.248C148.72 60.248 148.176 62.312 148.144 64.248C150.176 64.168 151.952 63.288 154 63.256C153.888 62.728 153.68 62.232 153.392 61.784C153.312 61.656 153.216 61.544 153.136 61.448C153.12 61.432 153.088 61.4 153.072 61.384C153.008 61.304 152.928 61.224 152.848 61.144C152.816 61.128 152.784 61.096 152.768 61.08C152.672 61 152.576 60.92 152.464 60.84C152.352 60.76 152.24 60.696 152.128 60.648C152.112 60.632 152.08 60.616 152.048 60.6C151.968 60.552 151.872 60.52 151.776 60.472C151.76 60.472 151.728 60.456 151.712 60.456C151.6 60.408 151.488 60.376 151.376 60.344C151.36 60.344 151.328 60.328 151.312 60.328C151.216 60.312 151.136 60.296 151.04 60.28C151.008 60.28 150.976 60.264 150.96 60.264C150.848 60.248 150.736 60.248 150.64 60.248ZM168.738 60.248L170.242 59.992V68.76L168.738 69V63.256C166.994 63.256 165.49 64.248 163.73 64.248V68.76L162.242 69V60.248L163.73 59.992V64.008C165.49 64.008 166.994 63 168.738 63V60.248ZM179.394 60.248L180.898 59.992V68.76L179.394 69V68.04C178.53 68.696 177.474 69.032 176.386 69C173.89 69 171.89 67.512 171.89 64.504C171.89 61.496 173.89 59.992 176.386 59.992C177.474 59.96 178.53 60.312 179.394 60.968V60.248ZM176.882 68.76C177.89 68.712 178.818 68.2 179.394 67.384V61.864C178.482 60.888 177.218 60.312 175.89 60.248C173.89 60.248 173.378 62.504 173.378 64.504C173.378 67.512 175.378 68.76 176.882 68.76ZM191.875 60.248L193.363 59.992V68.76L191.875 69V60.808L188.259 67.048L188.419 67.32L187.987 67.576L184.355 61.288V68.76L182.867 69V60.248L184.355 59.992V60.28L188.115 66.808L191.875 60.312V60.248Z" fill="#394128"/>
</svg>
