<svg width="666" height="134" viewBox="0 0 666 134" fill="none" xmlns="http://www.w3.org/2000/svg">
<path d="M126.713 24.116L130.061 23.54V26.924L126.713 27.5V24.692H115.985V36.5C119.513 36.284 122.573 34.268 126.137 34.268V34.808C122.573 34.808 119.513 36.824 115.985 37.04V48.884H126.713V47.768L130.061 47.192V49.46L126.713 50V49.46H115.985L112.637 50V24.116L115.985 23.54V24.116H126.713ZM148.684 46.076L149.224 47.192C147.532 48.884 144.256 50 141.916 50C136.3 50 131.8 46.652 131.8 39.884C131.8 33.116 136.3 29.732 141.916 29.732C144.112 29.696 146.272 30.308 148.108 31.496L147.028 33.8C145.66 31.676 143.32 30.38 140.8 30.308C136.3 30.308 135.148 35.384 135.148 39.884C135.148 46.652 139.684 49.46 143.032 49.46C145.336 49.28 147.424 48.02 148.684 46.076ZM165.453 30.308L168.837 29.732V49.46L165.453 50V30.884H156.381C155.985 34.988 155.841 39.128 155.877 43.268C155.877 47.768 153.609 50 150.801 50L150.261 49.46C153.069 49.46 155.301 47.768 155.301 42.692C155.229 38.552 155.445 34.412 155.877 30.308H165.453ZM187.882 30.308L191.266 29.732V49.46L187.882 50V35.816L176.614 49.28V49.46L173.266 50V30.308L176.614 29.732V48.416L187.882 34.916V30.308ZM216.975 29.732C222.591 29.732 227.127 33.116 227.127 39.884C227.127 46.652 222.591 50 216.975 50C211.359 50 206.859 46.652 206.859 39.884C206.859 33.116 211.359 29.732 216.975 29.732ZM218.091 49.46C222.591 49.46 223.743 44.384 223.743 39.884C223.743 33.116 219.243 30.308 215.859 30.308C211.359 30.308 210.207 35.384 210.207 39.884C210.207 46.652 214.707 49.46 218.091 49.46ZM247.016 46.076L247.556 47.192C245.864 48.884 242.588 50 240.248 50C234.632 50 230.132 46.652 230.132 39.884C230.132 33.116 234.632 29.732 240.248 29.732C242.444 29.696 244.604 30.308 246.44 31.496L245.36 33.8C243.992 31.676 241.652 30.38 239.132 30.308C234.632 30.308 233.48 35.384 233.48 39.884C233.48 46.652 238.016 49.46 241.364 49.46C243.668 49.28 245.756 48.02 247.016 46.076ZM266.737 30.308V30.884H259.429V49.46L256.045 50V30.884H248.737V30.308H256.045L259.429 29.732V30.308H266.737ZM284.317 30.308L287.701 29.732V49.46L284.317 50V47.84C282.373 49.316 279.997 50.072 277.549 50C271.933 50 267.433 46.652 267.433 39.884C267.433 33.116 271.933 29.732 277.549 29.732C279.997 29.66 282.373 30.452 284.317 31.928V30.308ZM278.665 49.46C280.933 49.352 283.021 48.2 284.317 46.364V33.944C282.265 31.748 279.421 30.452 276.433 30.308C271.933 30.308 270.781 35.384 270.781 39.884C270.781 46.652 275.281 49.46 278.665 49.46ZM305.27 30.308L308.654 29.732V49.46L305.27 50V30.884H296.198C295.802 34.988 295.658 39.128 295.694 43.268C295.694 47.768 293.426 50 290.618 50L290.078 49.46C292.886 49.46 295.118 47.768 295.118 42.692C295.046 38.552 295.262 34.412 295.694 30.308H305.27ZM327.699 30.308L331.083 29.732V49.46L327.699 50V35.816L316.431 49.28V49.46L313.083 50V30.308L316.431 29.732V48.416L327.699 34.916V30.308ZM351.676 46.076L352.216 47.192C350.524 48.884 347.248 50 344.908 50C339.292 50 334.792 46.652 334.792 39.884C334.792 33.116 339.292 29.732 344.908 29.732C347.104 29.696 349.264 30.308 351.1 31.496L350.02 33.8C348.652 31.676 346.312 30.38 343.792 30.308C339.292 30.308 338.14 35.384 338.14 39.884C338.14 46.652 342.676 49.46 346.024 49.46C348.328 49.28 350.416 48.02 351.676 46.076ZM364.305 37.616C369.381 37.616 373.305 39.308 373.305 43.808C373.305 48.344 368.805 50 363.729 50C362.037 50.072 360.309 49.892 358.653 49.46L355.305 50V30.308L358.653 29.732V38.444C359.733 37.976 361.497 37.616 364.305 37.616ZM363.729 49.46C368.229 49.46 369.921 46.652 369.921 43.808C369.921 40.1 367.689 38.192 363.729 38.192C360.921 38.192 359.121 38.984 358.653 39.884V48.884C360.309 49.316 362.037 49.496 363.729 49.46ZM403.65 38.084C406.17 38.876 408.15 40.64 408.15 43.808C408.15 48.344 404.766 50 397.458 50C395.55 49.964 393.678 49.748 391.806 49.46L388.458 50V30.308L391.806 29.732H399.69C403.146 29.732 407.034 30.884 407.034 34.232C407.034 36.932 405.234 37.832 403.65 38.084ZM391.806 30.308V37.616H400.266C402.534 37.616 403.65 36.5 403.65 34.232C403.65 31.424 401.382 30.308 399.15 30.308H391.806ZM397.458 49.46C403.074 49.46 404.766 46.652 404.766 43.808C404.766 40.1 402.534 38.192 399.69 38.192H391.806V48.884C393.678 49.208 395.55 49.388 397.458 49.46ZM421.303 29.732C426.919 29.732 431.455 33.116 431.455 39.884C431.455 46.652 426.919 50 421.303 50C415.687 50 411.187 46.652 411.187 39.884C411.187 33.116 415.687 29.732 421.303 29.732ZM422.419 49.46C426.919 49.46 428.071 44.384 428.071 39.884C428.071 33.116 423.571 30.308 420.187 30.308C415.687 30.308 414.535 35.384 414.535 39.884C414.535 46.652 419.035 49.46 422.419 49.46ZM449.796 30.308L453.18 29.732V49.46L449.796 50V30.884H438.528V49.46L435.18 50V30.308H449.796ZM467.726 29.732C473.342 29.732 477.878 33.116 477.878 39.884C477.878 46.652 473.342 50 467.726 50C465.278 50.072 462.902 49.316 460.958 47.84V56.228L457.61 56.768V30.884L460.958 30.308V31.928C462.902 30.452 465.278 29.66 467.726 29.732ZM468.842 49.46C473.342 49.46 474.494 44.384 474.494 39.884C474.494 33.116 469.994 30.308 466.61 30.308C464.342 30.416 462.254 31.532 460.958 33.404V45.788C463.01 47.984 465.854 49.316 468.842 49.46ZM490.983 29.732C496.599 29.732 501.135 33.116 501.135 39.884C501.135 46.652 496.599 50 490.983 50C485.367 50 480.867 46.652 480.867 39.884C480.867 33.116 485.367 29.732 490.983 29.732ZM492.099 49.46C496.599 49.46 497.751 44.384 497.751 39.884C497.751 33.116 493.251 30.308 489.867 30.308C485.367 30.308 484.215 35.384 484.215 39.884C484.215 46.652 488.715 49.46 492.099 49.46ZM521.024 46.076L521.564 47.192C519.872 48.884 516.596 50 514.256 50C508.64 50 504.14 46.652 504.14 39.884C504.14 33.116 508.64 29.732 514.256 29.732C516.452 29.696 518.612 30.308 520.448 31.496L519.368 33.8C518 31.676 515.66 30.38 513.14 30.308C508.64 30.308 507.488 35.384 507.488 39.884C507.488 46.652 512.024 49.46 515.372 49.46C517.676 49.28 519.764 48.02 521.024 46.076ZM533.653 37.616C538.729 37.616 542.653 39.308 542.653 43.808C542.653 48.344 538.153 50 533.077 50C531.385 50.072 529.657 49.892 528.001 49.46L524.653 50V30.308L528.001 29.732V38.444C529.081 37.976 530.845 37.616 533.653 37.616ZM533.077 49.46C537.577 49.46 539.269 46.652 539.269 43.808C539.269 40.1 537.037 38.192 533.077 38.192C530.269 38.192 528.469 38.984 528.001 39.884V48.884C529.657 49.316 531.385 49.496 533.077 49.46ZM543.769 30.308L547.153 29.732V49.46L543.769 50V30.308ZM552.771 46.652C553.203 46.652 553.635 46.832 553.959 47.12C554.283 47.444 554.463 47.876 554.463 48.344C554.463 50.576 553.311 52.268 551.079 52.268V51.692C552.051 51.692 552.627 51.26 552.735 50C551.799 50 551.043 49.244 551.079 48.308C551.079 47.372 551.835 46.616 552.771 46.652ZM208.378 87.308L211.762 86.732V106.46L208.378 107V87.884H197.11V106.46L193.762 107V87.308H208.378ZM225.588 86.732C231.204 86.732 235.74 90.116 235.74 96.884C235.74 103.652 231.204 107 225.588 107C219.972 107 215.472 103.652 215.472 96.884C215.472 90.116 219.972 86.732 225.588 86.732ZM226.704 106.46C231.204 106.46 232.356 101.384 232.356 96.884C232.356 90.116 227.856 87.308 224.472 87.308C219.972 87.308 218.82 92.384 218.82 96.884C218.82 103.652 223.32 106.46 226.704 106.46ZM250.446 95.084C253.002 95.876 254.982 97.64 254.982 100.808C254.982 105.344 250.338 107 245.406 107C240.186 107 237.954 104.768 237.954 104.768L238.494 103.652C240.366 105.38 242.85 106.388 245.406 106.46C249.762 106.46 251.598 103.652 251.598 100.808C251.598 97.1 249.33 95.192 246.522 95.192H243.57V94.616H247.098C249.33 94.616 250.446 93.5 250.446 91.232C250.446 88.424 248.07 87.308 244.83 87.308C243.138 87.272 241.482 87.884 240.186 89L239.61 87.884C239.61 87.884 241.302 86.732 245.406 86.732C249.762 86.732 253.83 87.884 253.83 91.232C253.83 93.932 252.03 94.832 250.446 95.084ZM273.888 95.084C276.408 95.876 278.388 97.64 278.388 100.808C278.388 105.344 275.004 107 267.696 107C265.788 106.964 263.916 106.748 262.044 106.46L258.696 107V87.308L262.044 86.732H269.928C273.384 86.732 277.272 87.884 277.272 91.232C277.272 93.932 275.472 94.832 273.888 95.084ZM262.044 87.308V94.616H270.504C272.772 94.616 273.888 93.5 273.888 91.232C273.888 88.424 271.62 87.308 269.388 87.308H262.044ZM267.696 106.46C273.312 106.46 275.004 103.652 275.004 100.808C275.004 97.1 272.772 95.192 269.928 95.192H262.044V105.884C263.916 106.208 265.788 106.388 267.696 106.46ZM291.541 86.732C297.157 86.732 301.693 90.116 301.693 96.884C301.693 103.652 297.157 107 291.541 107C285.925 107 281.425 103.652 281.425 96.884C281.425 90.116 285.925 86.732 291.541 86.732ZM292.657 106.46C297.157 106.46 298.309 101.384 298.309 96.884C298.309 90.116 293.809 87.308 290.425 87.308C285.925 87.308 284.773 92.384 284.773 96.884C284.773 103.652 289.273 106.46 292.657 106.46ZM320.035 87.308L323.419 86.732V106.46L320.035 107V94.076C316.111 94.076 312.727 96.308 308.767 96.308V106.46L305.419 107V87.308L308.767 86.732V95.768C312.727 95.768 316.111 93.5 320.035 93.5V87.308ZM342.464 87.308L345.848 86.732V106.46L342.464 107V92.816L331.196 106.28V106.46L327.848 107V87.308L331.196 86.732V105.416L342.464 91.916V87.308ZM366.37 87.308V87.884H359.062V106.46L355.678 107V87.884H348.37V87.308H355.678L359.062 86.732V87.308H366.37ZM378.298 106.46C380.602 106.28 382.69 105.02 383.95 103.076L384.49 104.192C382.798 105.884 379.522 107.036 377.182 107.036C371.89 107.036 367.57 104.012 367.102 98C367.066 97.64 367.066 97.28 367.066 96.884C367.066 90.116 371.566 86.732 377.182 86.732C377.47 86.732 377.794 86.768 378.082 86.768C378.19 86.768 378.298 86.804 378.406 86.804C378.586 86.84 378.766 86.84 378.946 86.876C379.09 86.876 379.198 86.912 379.342 86.912C379.486 86.948 379.63 86.984 379.774 87.02C379.918 87.056 380.062 87.092 380.206 87.092C380.35 87.128 380.458 87.164 380.602 87.2C380.746 87.236 380.89 87.308 380.998 87.344C381.142 87.38 381.25 87.416 381.394 87.488C381.502 87.524 381.646 87.596 381.79 87.632C381.898 87.704 382.006 87.74 382.114 87.776C382.258 87.848 382.402 87.92 382.51 87.992C382.618 88.064 382.726 88.1 382.834 88.172C382.978 88.244 383.086 88.316 383.194 88.388C383.266 88.424 383.338 88.46 383.374 88.496C385.426 89.936 386.794 92.168 387.118 94.616H383.95C379.198 94.616 375.13 96.704 370.414 96.848V96.884C370.414 103.652 374.914 106.46 378.298 106.46ZM376.066 87.308C371.746 87.308 370.522 91.952 370.45 96.308C375.022 96.128 379.018 94.148 383.626 94.076C383.374 92.888 382.906 91.772 382.258 90.764C382.078 90.476 381.862 90.224 381.682 90.008C381.646 89.972 381.574 89.9 381.538 89.864C381.394 89.684 381.214 89.504 381.034 89.324C380.962 89.288 380.89 89.216 380.854 89.18C380.638 89 380.422 88.82 380.17 88.64C379.918 88.46 379.666 88.316 379.414 88.208C379.378 88.172 379.306 88.136 379.234 88.1C379.054 87.992 378.838 87.92 378.622 87.812C378.586 87.812 378.514 87.776 378.478 87.776C378.226 87.668 377.974 87.596 377.722 87.524C377.686 87.524 377.614 87.488 377.578 87.488C377.362 87.452 377.182 87.416 376.966 87.38C376.894 87.38 376.822 87.344 376.786 87.344C376.534 87.308 376.282 87.308 376.066 87.308ZM416.785 87.308L420.169 86.732V106.46L416.785 107V94.076C412.861 94.076 409.477 96.308 405.517 96.308V106.46L402.169 107V87.308L405.517 86.732V95.768C409.477 95.768 412.861 93.5 416.785 93.5V87.308ZM440.762 87.308L444.146 86.732V106.46L440.762 107V104.84C438.818 106.316 436.442 107.072 433.994 107C428.378 107 423.878 103.652 423.878 96.884C423.878 90.116 428.378 86.732 433.994 86.732C436.442 86.66 438.818 87.452 440.762 88.928V87.308ZM435.11 106.46C437.378 106.352 439.466 105.2 440.762 103.364V90.944C438.71 88.748 435.866 87.452 432.878 87.308C428.378 87.308 427.226 92.384 427.226 96.884C427.226 103.652 431.726 106.46 435.11 106.46ZM468.843 87.308L472.191 86.732V106.46L468.843 107V88.568L460.707 102.608L461.067 103.22L460.095 103.796L451.923 89.648V106.46L448.575 107V87.308L451.923 86.732V87.38L460.383 102.068L468.843 87.452V87.308Z" fill="#394128"/>
</svg>
