<svg width="220" height="74" viewBox="0 0 220 74" fill="none" xmlns="http://www.w3.org/2000/svg">
<path d="M19.26 0.575959L22.644 -3.95775e-05V25.92L19.26 26.46V1.15196H4.032V25.92L0.683999 26.46V0.575959L4.032 -3.95775e-05V0.575959H19.26ZM37.4194 6.19196C43.0354 6.19196 47.5714 9.57596 47.5714 16.344C47.5714 23.112 43.0354 26.46 37.4194 26.46C31.8034 26.46 27.3034 23.112 27.3034 16.344C27.3034 9.57596 31.8034 6.19196 37.4194 6.19196ZM38.5354 25.92C43.0354 25.92 44.1874 20.844 44.1874 16.344C44.1874 9.57596 39.6874 6.76796 36.3034 6.76796C31.8034 6.76796 30.6514 11.844 30.6514 16.344C30.6514 23.112 35.1514 25.92 38.5354 25.92ZM64.7589 6.76796L68.1069 6.19196V25.92L64.7589 26.46V20.268C54.6069 20.268 50.6829 18.576 50.6829 12.96V6.76796L54.0309 6.19196V12.384C54.0309 18.036 55.1829 19.728 64.7589 19.728V6.76796ZM83.2972 25.92C85.6012 25.74 87.6892 24.48 88.9492 22.536L89.4892 23.652C87.7972 25.344 84.5212 26.496 82.1812 26.496C76.8892 26.496 72.5692 23.472 72.1012 17.46C72.0652 17.1 72.0652 16.74 72.0652 16.344C72.0652 9.57596 76.5652 6.19196 82.1812 6.19196C82.4692 6.19196 82.7932 6.22796 83.0812 6.22796C83.1892 6.22796 83.2972 6.26396 83.4052 6.26396C83.5852 6.29996 83.7652 6.29996 83.9452 6.33596C84.0892 6.33596 84.1972 6.37196 84.3412 6.37196C84.4852 6.40796 84.6292 6.44396 84.7732 6.47996C84.9172 6.51596 85.0612 6.55196 85.2052 6.55196C85.3492 6.58796 85.4572 6.62396 85.6012 6.65996C85.7452 6.69596 85.8892 6.76796 85.9972 6.80396C86.1412 6.83996 86.2492 6.87596 86.3932 6.94796C86.5012 6.98396 86.6452 7.05596 86.7892 7.09196C86.8972 7.16396 87.0052 7.19996 87.1132 7.23596C87.2572 7.30796 87.4012 7.37996 87.5092 7.45196C87.6172 7.52396 87.7252 7.55996 87.8332 7.63196C87.9772 7.70396 88.0852 7.77596 88.1932 7.84796C88.2652 7.88396 88.3372 7.91996 88.3732 7.95596C90.4252 9.39596 91.7932 11.628 92.1172 14.076H88.9492C84.1972 14.076 80.1292 16.164 75.4132 16.308V16.344C75.4132 23.112 79.9132 25.92 83.2972 25.92ZM81.0652 6.76796C76.7452 6.76796 75.5212 11.412 75.4492 15.768C80.0212 15.588 84.0172 13.608 88.6252 13.536C88.3732 12.348 87.9052 11.232 87.2572 10.224C87.0772 9.93596 86.8612 9.68396 86.6812 9.46796C86.6452 9.43196 86.5732 9.35996 86.5372 9.32396C86.3932 9.14396 86.2132 8.96396 86.0332 8.78396C85.9612 8.74796 85.8892 8.67596 85.8532 8.63996C85.6372 8.45996 85.4212 8.27996 85.1692 8.09996C84.9172 7.91996 84.6652 7.77596 84.4132 7.66796C84.3772 7.63196 84.3052 7.59596 84.2332 7.55996C84.0532 7.45196 83.8372 7.37996 83.6212 7.27196C83.5852 7.27196 83.5132 7.23596 83.4772 7.23596C83.2252 7.12796 82.9732 7.05596 82.7212 6.98396C82.6852 6.98396 82.6132 6.94796 82.5772 6.94796C82.3612 6.91196 82.1812 6.87596 81.9652 6.83996C81.8932 6.83996 81.8212 6.80396 81.7852 6.80396C81.5332 6.76796 81.2812 6.76796 81.0652 6.76796ZM115.803 6.76796L119.151 6.19196V25.92L115.803 26.46V8.02796L107.667 22.068L108.027 22.68L107.055 23.256L98.8832 9.10796V25.92L95.5352 26.46V6.76796L98.8832 6.19196V6.83996L107.343 21.528L115.803 6.91196V6.76796ZM140.256 6.19196L140.76 6.40796L130.68 31.14C129.6 33.768 125.856 33.588 124.452 32.436L124.992 31.32C126.144 32.256 129.096 33.444 130.14 30.924L133.092 23.76L130.932 25.272L122.256 8.20796L125.028 6.22796L133.452 22.788L140.256 6.19196ZM170.561 6.76796L173.945 6.19196V25.92L170.561 26.46V13.536C166.637 13.536 163.253 15.768 159.293 15.768V25.92L155.945 26.46V6.76796L159.293 6.19196V15.228C163.253 15.228 166.637 12.96 170.561 12.96V6.76796ZM194.789 6.76796L198.173 6.19196V25.92L194.789 26.46V24.3C192.845 25.776 190.469 26.532 188.021 26.46C182.405 26.46 177.905 23.112 177.905 16.344C177.905 9.57596 182.405 6.19196 188.021 6.19196C190.469 6.11996 192.845 6.91196 194.789 8.38796V6.76796ZM189.137 25.92C191.405 25.812 193.493 24.66 194.789 22.824V10.404C192.737 8.20796 189.893 6.91196 186.905 6.76796C182.405 6.76796 181.253 11.844 181.253 16.344C181.253 23.112 185.753 25.92 189.137 25.92ZM219.016 22.536L219.556 23.652C217.864 25.344 214.588 26.46 212.248 26.46C206.632 26.46 202.132 23.112 202.132 16.344C202.132 9.57596 206.632 6.19196 212.248 6.19196C214.444 6.15596 216.604 6.76796 218.44 7.95596L217.36 10.26C215.992 8.13596 213.652 6.83996 211.132 6.76796C206.632 6.76796 205.48 11.844 205.48 16.344C205.48 23.112 210.016 25.92 213.364 25.92C215.668 25.74 217.756 24.48 219.016 22.536ZM15.192 54.544C17.712 55.336 19.692 57.1 19.692 60.268C19.692 64.804 16.308 66.46 9 66.46C7.092 66.424 5.22 66.208 3.348 65.92L-8.9407e-07 66.46V46.768L3.348 46.192H11.232C14.688 46.192 18.576 47.344 18.576 50.692C18.576 53.392 16.776 54.292 15.192 54.544ZM3.348 46.768V54.076H11.808C14.076 54.076 15.192 52.96 15.192 50.692C15.192 47.884 12.924 46.768 10.692 46.768H3.348ZM9 65.92C14.616 65.92 16.308 63.112 16.308 60.268C16.308 56.56 14.076 54.652 11.232 54.652H3.348V65.344C5.22 65.668 7.092 65.848 9 65.92ZM32.6992 54.076C37.7752 54.076 41.6992 55.768 41.6992 60.268C41.6992 64.804 37.1992 66.46 32.1232 66.46C30.4312 66.532 28.7032 66.352 27.0472 65.92L23.6992 66.46V46.768L27.0472 46.192V54.904C28.1272 54.436 29.8912 54.076 32.6992 54.076ZM32.1232 65.92C36.6232 65.92 38.3152 63.112 38.3152 60.268C38.3152 56.56 36.0832 54.652 32.1232 54.652C29.3152 54.652 27.5152 55.444 27.0472 56.344V65.344C28.7032 65.776 30.4312 65.956 32.1232 65.92ZM42.8152 46.768L46.1992 46.192V65.92L42.8152 66.46V46.768ZM60.8869 46.192C66.5029 46.192 71.0389 49.576 71.0389 56.344C71.0389 63.112 66.5029 66.46 60.8869 66.46C55.2709 66.46 50.7709 63.112 50.7709 56.344C50.7709 41.692 55.2709 37.192 60.3109 37.192C66.5029 37.192 68.7709 35.5 68.7709 35.5L69.3469 37.768C66.3589 38.2 63.3349 38.38 60.3109 38.308C56.0269 38.308 52.9669 41.548 52.1029 50.764C53.8669 47.74 57.1069 46.192 60.8869 46.192ZM62.0029 65.92C66.5029 65.92 67.6549 60.844 67.6549 56.344C67.6549 49.576 63.1549 46.768 59.7709 46.768C55.2709 46.768 54.1189 51.844 54.1189 56.344C54.1189 63.112 58.6189 65.92 62.0029 65.92ZM89.6512 46.768L93.0352 46.192V65.92L89.6512 66.46V52.276L78.3832 65.74V65.92L75.0352 66.46V46.768L78.3832 46.192V64.876L89.6512 51.376V46.768ZM107.831 46.192C113.447 46.192 117.983 49.576 117.983 56.344C117.983 63.112 113.447 66.46 107.831 66.46C105.383 66.532 103.007 65.776 101.063 64.3V72.688L97.7148 73.228V47.344L101.063 46.768V48.388C103.007 46.912 105.383 46.12 107.831 46.192ZM108.947 65.92C113.447 65.92 114.599 60.844 114.599 56.344C114.599 49.576 110.099 46.768 106.715 46.768C104.447 46.876 102.359 47.992 101.063 49.864V62.248C103.115 64.444 105.959 65.776 108.947 65.92ZM138.105 46.768L141.489 46.192V65.92L138.105 66.46V64.3C136.161 65.776 133.785 66.532 131.337 66.46C125.721 66.46 121.221 63.112 121.221 56.344C121.221 49.576 125.721 46.192 131.337 46.192C133.785 46.12 136.161 46.912 138.105 48.388V46.768ZM132.453 65.92C134.721 65.812 136.809 64.66 138.105 62.824V50.404C136.053 48.208 133.209 46.912 130.221 46.768C125.721 46.768 124.569 51.844 124.569 56.344C124.569 63.112 129.069 65.92 132.453 65.92ZM163.592 46.192C169.244 46.192 173.744 49.576 173.744 56.344C173.744 63.112 169.244 66.46 163.592 66.46C157.976 66.46 153.476 63.112 153.476 56.38C150.524 56.668 149.516 59.332 149.516 61.96V65.92L146.168 66.46V46.768L149.516 46.192V57.892C150.452 56.632 151.928 55.84 153.476 55.804C153.728 49.396 158.12 46.192 163.592 46.192ZM164.744 65.92C169.244 65.92 170.36 60.844 170.36 56.344C170.36 49.576 165.86 46.768 162.476 46.768C157.976 46.768 156.86 51.844 156.86 56.344C156.86 63.112 161.36 65.92 164.744 65.92ZM192.674 46.768V47.344H185.366V65.92L181.982 66.46V47.344H174.674V46.768H181.982L185.366 46.192V46.768H192.674Z" fill="#1F2D1A"/>
</svg>
