<svg width="756" height="69" viewBox="0 0 756 69" fill="none" xmlns="http://www.w3.org/2000/svg">
<path d="M33.024 9.02404L39.04 8.00004V54.08L33.024 55.04V10.048H5.95201V54.08L5.24521e-06 55.04V9.02404L5.95201 8.00004V9.02404H33.024ZM65.113 19.008C75.097 19.008 83.161 25.024 83.161 37.056C83.161 49.088 75.097 55.04 65.113 55.04C55.129 55.04 47.129 49.088 47.129 37.056C47.129 25.024 55.129 19.008 65.113 19.008ZM67.097 54.08C75.097 54.08 77.145 45.056 77.145 37.056C77.145 25.024 69.145 20.032 63.129 20.032C55.129 20.032 53.081 29.056 53.081 37.056C53.081 49.088 61.081 54.08 67.097 54.08ZM113.522 20.032L119.474 19.008V54.08L113.522 55.04V44.032C95.474 44.032 88.498 41.024 88.498 31.04V20.032L94.45 19.008V30.016C94.45 40.064 96.498 43.072 113.522 43.072V20.032ZM146.285 54.08C150.381 53.76 154.093 51.52 156.333 48.064L157.293 50.048C154.285 53.056 148.461 55.104 144.301 55.104C134.893 55.104 127.213 49.728 126.381 39.04C126.317 38.4 126.317 37.76 126.317 37.056C126.317 25.024 134.317 19.008 144.301 19.008C144.813 19.008 145.389 19.072 145.901 19.072C146.093 19.072 146.285 19.136 146.477 19.136C146.797 19.2 147.117 19.2 147.437 19.264C147.693 19.264 147.885 19.328 148.141 19.328C148.397 19.392 148.653 19.456 148.909 19.52C149.165 19.584 149.421 19.648 149.677 19.648C149.933 19.712 150.125 19.776 150.381 19.84C150.637 19.904 150.893 20.032 151.085 20.096C151.341 20.16 151.533 20.224 151.789 20.352C151.981 20.416 152.237 20.544 152.493 20.608C152.685 20.736 152.877 20.8 153.069 20.864C153.325 20.992 153.581 21.12 153.773 21.248C153.965 21.376 154.157 21.44 154.349 21.568C154.605 21.696 154.797 21.824 154.989 21.952C155.117 22.016 155.245 22.08 155.309 22.144C158.957 24.704 161.389 28.672 161.965 33.024H156.333C147.885 33.024 140.653 36.736 132.269 36.992V37.056C132.269 49.088 140.269 54.08 146.285 54.08ZM142.317 20.032C134.637 20.032 132.461 28.288 132.333 36.032C140.461 35.712 147.565 32.192 155.757 32.064C155.309 29.952 154.477 27.968 153.325 26.176C153.005 25.664 152.621 25.216 152.301 24.832C152.237 24.768 152.109 24.64 152.045 24.576C151.789 24.256 151.469 23.936 151.149 23.616C151.021 23.552 150.893 23.424 150.829 23.36C150.445 23.04 150.061 22.72 149.613 22.4C149.165 22.08 148.717 21.824 148.269 21.632C148.205 21.568 148.077 21.504 147.949 21.44C147.629 21.248 147.245 21.12 146.861 20.928C146.797 20.928 146.669 20.864 146.605 20.864C146.157 20.672 145.709 20.544 145.261 20.416C145.197 20.416 145.069 20.352 145.005 20.352C144.621 20.288 144.301 20.224 143.917 20.16C143.789 20.16 143.661 20.096 143.597 20.096C143.149 20.032 142.701 20.032 142.317 20.032ZM203.879 20.032L209.831 19.008V54.08L203.879 55.04V22.272L189.415 47.232L190.055 48.32L188.327 49.344L173.799 24.192V54.08L167.847 55.04V20.032L173.799 19.008V20.16L188.839 46.272L203.879 20.288V20.032ZM247.156 19.008L248.052 19.392L230.132 63.36C228.212 68.032 221.556 67.712 219.06 65.664L220.02 63.68C222.068 65.344 227.316 67.456 229.172 62.976L234.42 50.24L230.58 52.928L215.156 22.592L220.084 19.072L235.06 48.512L247.156 19.008ZM300.643 20.032L306.659 19.008V54.08L300.643 55.04V32.064C293.667 32.064 287.651 36.032 280.611 36.032V54.08L274.659 55.04V20.032L280.611 19.008V35.072C287.651 35.072 293.667 31.04 300.643 31.04V20.032ZM343.52 20.032L349.536 19.008V54.08L343.52 55.04V51.2C340.064 53.824 335.84 55.168 331.488 55.04C321.504 55.04 313.504 49.088 313.504 37.056C313.504 25.024 321.504 19.008 331.488 19.008C335.84 18.88 340.064 20.288 343.52 22.912V20.032ZM333.472 54.08C337.504 53.888 341.216 51.84 343.52 48.576V26.496C339.872 22.592 334.816 20.288 329.504 20.032C321.504 20.032 319.456 29.056 319.456 37.056C319.456 49.088 327.456 54.08 333.472 54.08ZM386.395 48.064L387.355 50.048C384.347 53.056 378.523 55.04 374.363 55.04C364.379 55.04 356.379 49.088 356.379 37.056C356.379 25.024 364.379 19.008 374.363 19.008C378.267 18.944 382.107 20.032 385.371 22.144L383.451 26.24C381.019 22.464 376.859 20.16 372.379 20.032C364.379 20.032 362.331 29.056 362.331 37.056C362.331 49.088 370.395 54.08 376.347 54.08C380.443 53.76 384.155 51.52 386.395 48.064ZM441.48 33.856C445.96 35.264 449.48 38.4 449.48 44.032C449.48 52.096 443.464 55.04 430.472 55.04C427.08 54.976 423.752 54.592 420.424 54.08L414.472 55.04V20.032L420.424 19.008H434.44C440.584 19.008 447.496 21.056 447.496 27.008C447.496 31.808 444.296 33.408 441.48 33.856ZM420.424 20.032V33.024H435.464C439.496 33.024 441.48 31.04 441.48 27.008C441.48 22.016 437.448 20.032 433.48 20.032H420.424ZM430.472 54.08C440.456 54.08 443.464 49.088 443.464 44.032C443.464 37.44 439.496 34.048 434.44 34.048H420.424V53.056C423.752 53.632 427.08 53.952 430.472 54.08ZM472.409 33.024C481.433 33.024 488.409 36.032 488.409 44.032C488.409 52.096 480.409 55.04 471.385 55.04C468.377 55.168 465.305 54.848 462.361 54.08L456.409 55.04V20.032L462.361 19.008V34.496C464.281 33.664 467.417 33.024 472.409 33.024ZM471.385 54.08C479.385 54.08 482.393 49.088 482.393 44.032C482.393 37.44 478.425 34.048 471.385 34.048C466.393 34.048 463.193 35.456 462.361 37.056V53.056C465.305 53.824 468.377 54.144 471.385 54.08ZM490.393 20.032L496.409 19.008V54.08L490.393 55.04V20.032ZM522.326 19.008C532.31 19.008 540.374 25.024 540.374 37.056C540.374 49.088 532.31 55.04 522.326 55.04C512.342 55.04 504.342 49.088 504.342 37.056C504.342 11.008 512.342 3.00804 521.302 3.00804C532.31 3.00804 536.342 3.8147e-05 536.342 3.8147e-05L537.366 4.03204C532.054 4.80004 526.678 5.12004 521.302 4.99203C513.686 4.99203 508.246 10.752 506.71 27.136C509.846 21.76 515.606 19.008 522.326 19.008ZM524.31 54.08C532.31 54.08 534.358 45.056 534.358 37.056C534.358 25.024 526.358 20.032 520.342 20.032C512.342 20.032 510.294 29.056 510.294 37.056C510.294 49.088 518.294 54.08 524.31 54.08ZM573.268 20.032L579.284 19.008V54.08L573.268 55.04V29.824L553.236 53.76V54.08L547.284 55.04V20.032L553.236 19.008V52.224L573.268 28.224V20.032ZM605.393 19.008C615.377 19.008 623.441 25.024 623.441 37.056C623.441 49.088 615.377 55.04 605.393 55.04C601.041 55.168 596.817 53.824 593.361 51.2V66.112L587.409 67.072V21.056L593.361 20.032V22.912C596.817 20.288 601.041 18.88 605.393 19.008ZM607.377 54.08C615.377 54.08 617.425 45.056 617.425 37.056C617.425 25.024 609.425 20.032 603.409 20.032C599.377 20.224 595.665 22.208 593.361 25.536V47.552C597.009 51.456 602.065 53.824 607.377 54.08ZM659.02 20.032L665.036 19.008V54.08L659.02 55.04V51.2C655.564 53.824 651.34 55.168 646.988 55.04C637.004 55.04 629.004 49.088 629.004 37.056C629.004 25.024 637.004 19.008 646.988 19.008C651.34 18.88 655.564 20.288 659.02 22.912V20.032ZM648.972 54.08C653.004 53.888 656.716 51.84 659.02 48.576V26.496C655.372 22.592 650.316 20.288 645.004 20.032C637.004 20.032 634.956 29.056 634.956 37.056C634.956 49.088 642.956 54.08 648.972 54.08ZM704.135 19.008C714.183 19.008 722.183 25.024 722.183 37.056C722.183 49.088 714.183 55.04 704.135 55.04C694.151 55.04 686.151 49.088 686.151 37.12C680.903 37.632 679.111 42.368 679.111 47.04V54.08L673.159 55.04V20.032L679.111 19.008V39.808C680.775 37.568 683.399 36.16 686.151 36.096C686.599 24.704 694.407 19.008 704.135 19.008ZM706.183 54.08C714.183 54.08 716.167 45.056 716.167 37.056C716.167 25.024 708.167 20.032 702.151 20.032C694.151 20.032 692.167 29.056 692.167 37.056C692.167 49.088 700.167 54.08 706.183 54.08ZM755.642 20.032V21.056H742.65V54.08L736.634 55.04V21.056H723.642V20.032H736.634L742.65 19.008V20.032H755.642Z" fill="#1F2D1A"/>
</svg>
