<svg width="638" height="132" viewBox="0 0 638 132" fill="none" xmlns="http://www.w3.org/2000/svg">
<path d="M23.9999 4.99198C36.9919 4.99198 47.9999 12.032 47.9999 28.032C47.9999 44.032 36.9919 52.032 23.9999 52.032C11.0079 52.032 -5.65052e-05 44.032 -5.65052e-05 28.032C-5.65052e-05 12.032 11.0079 4.99198 23.9999 4.99198ZM25.9839 51.072C38.0159 51.072 41.9839 39.04 41.9839 28.032C41.9839 12.032 30.9759 6.01598 22.0159 6.01598C9.98394 6.01598 5.95194 17.024 5.95194 28.032C5.95194 44.032 16.9599 51.072 25.9839 51.072ZM83.8164 17.024V18.048H70.8244V51.072L64.8084 52.032V18.048H51.8164V17.024H64.8084L70.8244 16V17.024H83.8164ZM135.88 17.024L141.896 16V51.072L135.88 52.032V26.816L115.848 50.752V51.072L109.896 52.032V17.024L115.848 16V49.216L135.88 25.216V17.024ZM168.069 -1.90735e-05C177.029 -1.90735e-05 185.093 7.99998 185.093 34.048C185.093 46.08 177.029 52.032 167.045 52.032C157.061 52.032 149.061 46.08 149.061 34.048C149.061 22.016 157.061 16 167.045 16C173.765 16 179.525 18.752 182.661 24.128C181.189 7.74398 175.685 1.98398 168.069 1.98398C157.061 1.98398 153.029 7.03998 153.029 7.03998L152.005 3.00798C152.005 3.00798 157.061 -1.90735e-05 168.069 -1.90735e-05ZM169.029 51.072C177.029 51.072 179.077 42.048 179.077 34.048C179.077 22.016 171.077 17.024 165.061 17.024C157.061 17.024 155.013 26.048 155.013 34.048C155.013 46.08 163.013 51.072 169.029 51.072ZM211.709 51.072C215.805 50.752 219.517 48.512 221.757 45.056L222.717 47.04C219.709 50.048 213.885 52.096 209.725 52.096C200.317 52.096 192.637 46.72 191.805 36.032C191.741 35.392 191.741 34.752 191.741 34.048C191.741 22.016 199.741 16 209.725 16C210.237 16 210.813 16.064 211.325 16.064C211.517 16.064 211.709 16.128 211.901 16.128C212.221 16.192 212.541 16.192 212.861 16.256C213.117 16.256 213.309 16.32 213.565 16.32C213.821 16.384 214.077 16.448 214.333 16.512C214.589 16.576 214.845 16.64 215.101 16.64C215.357 16.704 215.549 16.768 215.805 16.832C216.061 16.896 216.317 17.024 216.509 17.088C216.765 17.152 216.957 17.216 217.213 17.344C217.405 17.408 217.661 17.536 217.917 17.6C218.109 17.728 218.301 17.792 218.493 17.856C218.749 17.984 219.005 18.112 219.197 18.24C219.389 18.368 219.581 18.432 219.773 18.56C220.029 18.688 220.221 18.816 220.413 18.944C220.541 19.008 220.669 19.072 220.733 19.136C224.381 21.696 226.813 25.664 227.389 30.016H221.757C213.309 30.016 206.077 33.728 197.693 33.984V34.048C197.693 46.08 205.693 51.072 211.709 51.072ZM207.741 17.024C200.061 17.024 197.885 25.28 197.757 33.024C205.885 32.704 212.989 29.184 221.181 29.056C220.733 26.944 219.901 24.96 218.749 23.168C218.429 22.656 218.045 22.208 217.725 21.824C217.661 21.76 217.533 21.632 217.469 21.568C217.213 21.248 216.893 20.928 216.573 20.608C216.445 20.544 216.317 20.416 216.253 20.352C215.869 20.032 215.485 19.712 215.037 19.392C214.589 19.072 214.141 18.816 213.693 18.624C213.629 18.56 213.501 18.496 213.373 18.432C213.053 18.24 212.669 18.112 212.285 17.92C212.221 17.92 212.093 17.856 212.029 17.856C211.581 17.664 211.133 17.536 210.685 17.408C210.621 17.408 210.493 17.344 210.429 17.344C210.045 17.28 209.725 17.216 209.341 17.152C209.213 17.152 209.085 17.088 209.021 17.088C208.573 17.024 208.125 17.024 207.741 17.024ZM259.255 17.024L265.271 16V51.072L259.255 52.032V26.816L239.223 50.752V51.072L233.271 52.032V17.024L239.223 16V49.216L259.255 25.216V17.024ZM313.069 -1.90735e-05C322.029 -1.90735e-05 330.093 7.99998 330.093 34.048C330.093 46.08 322.029 52.032 312.045 52.032C302.061 52.032 294.061 46.08 294.061 34.048C294.061 22.016 302.061 16 312.045 16C318.765 16 324.525 18.752 327.661 24.128C326.189 7.74398 320.685 1.98398 313.069 1.98398C302.061 1.98398 298.029 7.03998 298.029 7.03998L297.005 3.00798C297.005 3.00798 302.061 -1.90735e-05 313.069 -1.90735e-05ZM314.029 51.072C322.029 51.072 324.077 42.048 324.077 34.048C324.077 22.016 316.077 17.024 310.061 17.024C302.061 17.024 300.013 26.048 300.013 34.048C300.013 46.08 308.013 51.072 314.029 51.072ZM354.725 16C364.709 16 372.773 22.016 372.773 34.048C372.773 46.08 364.709 52.032 354.725 52.032C344.741 52.032 336.741 46.08 336.741 34.048C336.741 22.016 344.741 16 354.725 16ZM356.709 51.072C364.709 51.072 366.757 42.048 366.757 34.048C366.757 22.016 358.757 17.024 352.741 17.024C344.741 17.024 342.693 26.048 342.693 34.048C342.693 46.08 350.693 51.072 356.709 51.072ZM26.8799 83.024L32.8959 82V117.072L26.8799 118.032V92.816L6.84794 116.752V117.072L0.895944 118.032V83.024L6.84794 82V115.216L26.8799 91.216V83.024ZM59.0689 66C68.0289 66 76.0929 74 76.0929 100.048C76.0929 112.08 68.0289 118.032 58.0449 118.032C48.0609 118.032 40.0609 112.08 40.0609 100.048C40.0609 88.016 48.0609 82 58.0449 82C64.7649 82 70.5249 84.752 73.6609 90.128C72.1889 73.744 66.6849 67.984 59.0689 67.984C48.0609 67.984 44.0289 73.04 44.0289 73.04L43.0049 69.008C43.0049 69.008 48.0609 66 59.0689 66ZM60.0289 117.072C68.0289 117.072 70.0769 108.048 70.0769 100.048C70.0769 88.016 62.0769 83.024 56.0609 83.024C48.0609 83.024 46.0129 92.048 46.0129 100.048C46.0129 112.08 54.0129 117.072 60.0289 117.072ZM102.709 117.072C106.805 116.752 110.517 114.512 112.757 111.056L113.717 113.04C110.709 116.048 104.885 118.096 100.725 118.096C91.3169 118.096 83.6369 112.72 82.8049 102.032C82.7409 101.392 82.7409 100.752 82.7409 100.048C82.7409 88.016 90.7409 82 100.725 82C101.237 82 101.813 82.064 102.325 82.064C102.517 82.064 102.709 82.128 102.901 82.128C103.221 82.192 103.541 82.192 103.861 82.256C104.117 82.256 104.309 82.32 104.565 82.32C104.821 82.384 105.077 82.448 105.333 82.512C105.589 82.576 105.845 82.64 106.101 82.64C106.357 82.704 106.549 82.768 106.805 82.832C107.061 82.896 107.317 83.024 107.509 83.088C107.765 83.152 107.957 83.216 108.213 83.344C108.405 83.408 108.661 83.536 108.917 83.6C109.109 83.728 109.301 83.792 109.493 83.856C109.749 83.984 110.005 84.112 110.197 84.24C110.389 84.368 110.581 84.432 110.773 84.56C111.029 84.688 111.221 84.816 111.413 84.944C111.541 85.008 111.669 85.072 111.733 85.136C115.381 87.696 117.813 91.664 118.389 96.016H112.757C104.309 96.016 97.0769 99.728 88.6929 99.984V100.048C88.6929 112.08 96.6929 117.072 102.709 117.072ZM98.7409 83.024C91.0609 83.024 88.8849 91.28 88.7569 99.024C96.8849 98.704 103.989 95.184 112.181 95.056C111.733 92.944 110.901 90.96 109.749 89.168C109.429 88.656 109.045 88.208 108.725 87.824C108.661 87.76 108.533 87.632 108.469 87.568C108.213 87.248 107.893 86.928 107.573 86.608C107.445 86.544 107.317 86.416 107.253 86.352C106.869 86.032 106.485 85.712 106.037 85.392C105.589 85.072 105.141 84.816 104.693 84.624C104.629 84.56 104.501 84.496 104.373 84.432C104.053 84.24 103.669 84.112 103.285 83.92C103.221 83.92 103.093 83.856 103.029 83.856C102.581 83.664 102.133 83.536 101.685 83.408C101.621 83.408 101.493 83.344 101.429 83.344C101.045 83.28 100.725 83.216 100.341 83.152C100.213 83.152 100.085 83.088 100.021 83.088C99.5729 83.024 99.1249 83.024 98.7409 83.024ZM153.007 83.024L159.023 82V117.072L153.007 118.032V114.192C149.551 116.816 145.327 118.16 140.975 118.032C130.991 118.032 122.991 112.08 122.991 100.048C122.991 88.016 130.991 82 140.975 82C145.327 81.872 149.551 83.28 153.007 85.904V83.024ZM142.959 117.072C146.991 116.88 150.703 114.832 153.007 111.568V89.488C149.359 85.584 144.303 83.28 138.991 83.024C130.991 83.024 128.943 92.048 128.943 100.048C128.943 112.08 136.943 117.072 142.959 117.072ZM190.506 83.024L196.522 82V117.072L190.506 118.032V84.048H174.378C173.674 91.344 173.418 98.704 173.482 106.064C173.482 114.064 169.45 118.032 164.458 118.032L163.498 117.072C168.49 117.072 172.458 114.064 172.458 105.04C172.33 97.68 172.714 90.32 173.482 83.024H190.506ZM220.646 96.016C229.67 96.016 236.646 99.024 236.646 107.024C236.646 115.088 228.646 118.032 219.622 118.032C216.614 118.16 213.542 117.84 210.598 117.072L204.646 118.032V83.024L210.598 82V97.488C212.518 96.656 215.654 96.016 220.646 96.016ZM219.622 117.072C227.622 117.072 230.63 112.08 230.63 107.024C230.63 100.432 226.662 97.04 219.622 97.04C214.63 97.04 211.43 98.448 210.598 100.048V116.048C213.542 116.816 216.614 117.136 219.622 117.072ZM268.692 83.024L274.708 82V117.072L268.692 118.032V95.056C261.716 95.056 255.7 99.024 248.66 99.024V117.072L242.708 118.032V83.024L248.66 82V98.064C255.7 98.064 261.716 94.032 268.692 94.032V83.024ZM299.537 82C309.521 82 317.585 88.016 317.585 100.048C317.585 112.08 309.521 118.032 299.537 118.032C289.553 118.032 281.553 112.08 281.553 100.048C281.553 88.016 289.553 82 299.537 82ZM301.521 117.072C309.521 117.072 311.569 108.048 311.569 100.048C311.569 88.016 303.569 83.024 297.553 83.024C289.553 83.024 287.505 92.048 287.505 100.048C287.505 112.08 295.505 117.072 301.521 117.072ZM345.45 83.024L351.466 82V88.016L345.45 89.04V84.048H330.41V117.072L324.458 118.032V83.024H345.45ZM372.85 82C382.834 82 390.898 88.016 390.898 100.048C390.898 112.08 382.834 118.032 372.85 118.032C362.866 118.032 354.866 112.08 354.866 100.048C354.866 88.016 362.866 82 372.85 82ZM374.834 117.072C382.834 117.072 384.882 108.048 384.882 100.048C384.882 88.016 376.882 83.024 370.866 83.024C362.866 83.024 360.818 92.048 360.818 100.048C360.818 112.08 368.818 117.072 374.834 117.072ZM436.938 82C446.922 82 454.986 88.016 454.986 100.048C454.986 112.08 446.922 118.032 436.938 118.032C426.954 118.032 418.954 112.08 418.954 100.048C418.954 74 426.954 66 435.914 66C446.922 66 450.954 62.992 450.954 62.992L451.978 67.024C446.666 67.792 441.29 68.112 435.914 67.984C428.298 67.984 422.858 73.744 421.322 90.128C424.458 84.752 430.218 82 436.938 82ZM438.922 117.072C446.922 117.072 448.97 108.048 448.97 100.048C448.97 88.016 440.97 83.024 434.954 83.024C426.954 83.024 424.906 92.048 424.906 100.048C424.906 112.08 432.906 117.072 438.922 117.072ZM491.08 82L491.976 82.384L474.056 126.352C472.136 131.024 465.48 130.704 462.984 128.656L463.944 126.672C465.992 128.336 471.24 130.448 473.096 125.968L478.344 113.232L474.504 115.92L459.08 85.584L464.008 82.064L478.984 111.504L491.08 82ZM509.624 97.168C519.8 98.32 525.816 111.376 525.816 117.136L521.784 118.032C521.784 113.104 518.264 98.448 508.536 98.128L503.16 102.608V117.136L497.208 118.096V83.088L503.16 82.064V101.328L508.216 97.104L526.136 82L526.84 82.768L509.624 97.168ZM551.334 117.072C555.43 116.752 559.142 114.512 561.382 111.056L562.342 113.04C559.334 116.048 553.51 118.096 549.35 118.096C539.942 118.096 532.262 112.72 531.43 102.032C531.366 101.392 531.366 100.752 531.366 100.048C531.366 88.016 539.366 82 549.35 82C549.862 82 550.438 82.064 550.95 82.064C551.142 82.064 551.334 82.128 551.526 82.128C551.846 82.192 552.166 82.192 552.486 82.256C552.742 82.256 552.934 82.32 553.19 82.32C553.446 82.384 553.702 82.448 553.958 82.512C554.214 82.576 554.47 82.64 554.726 82.64C554.982 82.704 555.174 82.768 555.43 82.832C555.686 82.896 555.942 83.024 556.134 83.088C556.39 83.152 556.582 83.216 556.838 83.344C557.03 83.408 557.286 83.536 557.542 83.6C557.734 83.728 557.926 83.792 558.118 83.856C558.374 83.984 558.63 84.112 558.822 84.24C559.014 84.368 559.206 84.432 559.398 84.56C559.654 84.688 559.846 84.816 560.038 84.944C560.166 85.008 560.294 85.072 560.358 85.136C564.006 87.696 566.438 91.664 567.014 96.016H561.382C552.934 96.016 545.702 99.728 537.318 99.984V100.048C537.318 112.08 545.318 117.072 551.334 117.072ZM547.366 83.024C539.686 83.024 537.51 91.28 537.382 99.024C545.51 98.704 552.614 95.184 560.806 95.056C560.358 92.944 559.526 90.96 558.374 89.168C558.054 88.656 557.67 88.208 557.35 87.824C557.286 87.76 557.158 87.632 557.094 87.568C556.838 87.248 556.518 86.928 556.198 86.608C556.07 86.544 555.942 86.416 555.878 86.352C555.494 86.032 555.11 85.712 554.662 85.392C554.214 85.072 553.766 84.816 553.318 84.624C553.254 84.56 553.126 84.496 552.998 84.432C552.678 84.24 552.294 84.112 551.91 83.92C551.846 83.92 551.718 83.856 551.654 83.856C551.206 83.664 550.758 83.536 550.31 83.408C550.246 83.408 550.118 83.344 550.054 83.344C549.67 83.28 549.35 83.216 548.966 83.152C548.838 83.152 548.71 83.088 548.646 83.088C548.198 83.024 547.75 83.024 547.366 83.024ZM600.441 83.024V84.048H587.449V117.072L581.433 118.032V84.048H568.441V83.024H581.433L587.449 82V83.024H600.441ZM631.944 83.024L637.96 82V117.072L631.944 118.032V114.192C628.488 116.816 624.264 118.16 619.912 118.032C609.928 118.032 601.928 112.08 601.928 100.048C601.928 88.016 609.928 82 619.912 82C624.264 81.872 628.488 83.28 631.944 85.904V83.024ZM621.896 117.072C625.928 116.88 629.64 114.832 631.944 111.568V89.488C628.296 85.584 623.24 83.28 617.928 83.024C609.928 83.024 607.88 92.048 607.88 100.048C607.88 112.08 615.88 117.072 621.896 117.072Z" fill="#1F2D1A"/>
</svg>
