<svg width="348" height="165" viewBox="0 0 348 165" fill="none" xmlns="http://www.w3.org/2000/svg">
<path d="M45.504 45.056H53.504V46.08C47.488 46.08 46.464 51.072 46.464 56.064L43.456 54.08C43.456 50.048 44.8 47.424 47.808 46.08H12.416L6.464 47.04V1.02401L12.416 7.62939e-06V45.056H39.488V1.02401L45.504 7.62939e-06V45.056ZM94.3185 25.856C98.7985 27.264 102.319 30.4 102.319 36.032C102.319 44.096 96.3025 47.04 83.3105 47.04C79.9185 46.976 76.5905 46.592 73.2625 46.08L67.3105 47.04V12.032L73.2625 11.008H87.2785C93.4225 11.008 100.335 13.056 100.335 19.008C100.335 23.808 97.1345 25.408 94.3185 25.856ZM73.2625 12.032V25.024H88.3025C92.3345 25.024 94.3185 23.04 94.3185 19.008C94.3185 14.016 90.2865 12.032 86.3185 12.032H73.2625ZM83.3105 46.08C93.2945 46.08 96.3025 41.088 96.3025 36.032C96.3025 29.44 92.3345 26.048 87.2785 26.048H73.2625V45.056C76.5905 45.632 79.9185 45.952 83.3105 46.08ZM136.686 46.08C140.782 45.76 144.494 43.52 146.734 40.064L147.694 42.048C144.686 45.056 138.862 47.104 134.702 47.104C125.294 47.104 117.614 41.728 116.782 31.04C116.718 30.4 116.718 29.76 116.718 29.056C116.718 17.024 124.718 11.008 134.702 11.008C135.214 11.008 135.79 11.072 136.302 11.072C136.494 11.072 136.686 11.136 136.878 11.136C137.198 11.2 137.518 11.2 137.838 11.264C138.094 11.264 138.286 11.328 138.542 11.328C138.798 11.392 139.054 11.456 139.31 11.52C139.566 11.584 139.822 11.648 140.078 11.648C140.334 11.712 140.526 11.776 140.782 11.84C141.038 11.904 141.294 12.032 141.486 12.096C141.742 12.16 141.934 12.224 142.19 12.352C142.382 12.416 142.638 12.544 142.894 12.608C143.086 12.736 143.278 12.8 143.47 12.864C143.726 12.992 143.982 13.12 144.174 13.248C144.366 13.376 144.558 13.44 144.75 13.568C145.006 13.696 145.198 13.824 145.39 13.952C145.518 14.016 145.646 14.08 145.71 14.144C149.358 16.704 151.79 20.672 152.366 25.024H146.734C138.286 25.024 131.054 28.736 122.67 28.992V29.056C122.67 41.088 130.67 46.08 136.686 46.08ZM132.718 12.032C125.038 12.032 122.862 20.288 122.734 28.032C130.862 27.712 137.966 24.192 146.158 24.064C145.71 21.952 144.878 19.968 143.726 18.176C143.406 17.664 143.022 17.216 142.702 16.832C142.638 16.768 142.51 16.64 142.446 16.576C142.19 16.256 141.87 15.936 141.55 15.616C141.422 15.552 141.294 15.424 141.23 15.36C140.846 15.04 140.462 14.72 140.014 14.4C139.566 14.08 139.118 13.824 138.67 13.632C138.606 13.568 138.478 13.504 138.35 13.44C138.03 13.248 137.646 13.12 137.262 12.928C137.198 12.928 137.07 12.864 137.006 12.864C136.558 12.672 136.11 12.544 135.662 12.416C135.598 12.416 135.47 12.352 135.406 12.352C135.022 12.288 134.702 12.224 134.318 12.16C134.19 12.16 134.062 12.096 133.998 12.096C133.55 12.032 133.102 12.032 132.718 12.032ZM194.544 12.032V13.056H181.552V46.08L175.536 47.04V13.056H162.543V12.032H175.536L181.552 11.008V12.032H194.544ZM223.998 25.024C233.022 25.024 239.998 28.032 239.998 36.032C239.998 44.096 231.998 47.04 222.974 47.04C219.966 47.168 216.894 46.848 213.95 46.08L207.998 47.04V12.032L213.95 11.008V26.496C215.87 25.664 219.006 25.024 223.998 25.024ZM222.974 46.08C230.974 46.08 233.982 41.088 233.982 36.032C233.982 29.44 230.014 26.048 222.974 26.048C217.982 26.048 214.782 27.456 213.95 29.056V45.056C216.894 45.824 219.966 46.144 222.974 46.08ZM241.982 12.032L247.998 11.008V46.08L241.982 47.04V12.032ZM31.616 40.96C32 42.368 31.488 43.968 31.04 45.248C29.952 48.128 28.032 50.624 25.984 52.928C23.936 55.232 21.632 57.472 19.264 59.456C15.04 62.912 10.432 65.856 5.44 68.032C4.096 70.656 2.816 73.408 1.856 76.288C2.624 75.456 3.52 74.688 4.416 74.112C5.184 73.6 5.952 73.152 6.784 72.832C7.424 72.576 8.128 72.32 8.768 72.384C10.624 72.576 10.368 74.816 9.856 76.096C9.216 77.76 8.064 78.912 6.4 79.68C4.864 80.448 3.008 80.576 1.6 79.36C1.28 79.04 1.728 78.528 2.112 78.784C3.52 79.68 5.312 79.296 6.656 78.464C7.936 77.696 8.768 76.608 9.152 75.2C9.28 74.752 9.536 73.728 9.024 73.408C8.576 73.152 7.936 73.344 7.552 73.536C4.864 74.496 2.56 76.48 1.024 78.912C0.768 79.36 -2.38419e-07 79.04 0.128 78.528C0.384 77.696 0.64 76.864 0.896 76.096C1.792 73.472 2.88 70.976 4.032 68.544C3.776 68.672 3.584 68.8 3.328 68.864C3.2 68.928 3.136 68.736 3.264 68.672C3.584 68.544 3.904 68.416 4.224 68.224C6.016 64.704 8 61.312 10.112 57.984C13.312 52.8 16.832 47.744 21.44 43.776C22.592 42.752 23.744 41.856 25.024 41.088C26.176 40.32 27.392 39.488 28.8 39.296C30.08 39.168 31.296 39.68 31.616 40.96ZM30.656 43.776C30.976 42.624 31.36 40.512 29.824 40.128C28.544 39.808 27.2 40.704 26.112 41.344C23.68 42.88 21.44 44.736 19.456 46.848C15.424 51.072 12.288 56.064 9.28 61.12C8 63.232 6.784 65.344 5.696 67.52C10.816 64.896 15.68 61.696 20.032 57.856C22.208 55.872 24.32 53.76 26.176 51.456C28.096 49.216 29.952 46.656 30.656 43.776ZM56.906 74.624C57.098 74.496 57.354 74.752 57.226 74.944C56.01 76.544 54.41 77.76 52.682 78.784C49.93 80.384 46.154 82.112 43.018 80.64C40.33 79.36 39.434 76.224 39.626 73.28C37.386 75.328 35.658 77.888 34.57 80.704C34.378 81.216 33.546 81.024 33.738 80.512C34.634 78.144 35.658 75.84 36.682 73.6C37.514 71.872 38.538 70.08 40.202 68.992C40.458 68.864 40.778 69.248 40.522 69.44C40.138 69.76 39.754 70.144 39.434 70.464C38.538 71.552 37.898 72.896 37.322 74.112C37.194 74.368 37.13 74.56 37.002 74.816C38.346 73.152 39.882 71.68 41.674 70.528C42.762 69.824 44.17 69.248 45.45 69.632C46.474 69.952 47.498 70.848 47.37 71.936C47.37 72.192 46.986 72.256 46.922 72C46.474 70.464 44.81 70.016 43.402 70.528C42.122 71.04 40.906 72 39.882 72.96C39.946 73.6 40.01 74.176 40.138 74.752C40.33 75.584 40.522 76.48 40.906 77.248C41.546 78.656 42.634 79.744 44.17 80.064C45.706 80.448 47.306 80.064 48.714 79.552C50.186 79.04 51.594 78.272 52.938 77.376C54.346 76.544 55.562 75.52 56.906 74.624ZM81.6505 72.192C81.9065 72.128 82.0345 72.512 81.7785 72.576C76.7865 74.432 72.3065 77.568 67.1865 79.04C65.0745 79.616 62.6425 80.064 60.5305 79.488C58.8025 80.32 56.3705 81.088 55.1545 79.232C53.8105 77.312 56.0505 74.944 57.4585 73.792C58.8025 72.704 60.5945 71.808 62.3865 71.68C63.1545 71.488 63.9225 71.424 64.6265 71.808C65.5865 72.256 66.0985 73.216 65.7145 74.24C65.3305 75.264 64.5625 76.16 63.8585 76.928C63.1545 77.696 62.3865 78.336 61.5545 78.848C62.7705 79.04 64.0505 78.848 65.2025 78.656C67.1225 78.272 68.9785 77.568 70.7705 76.8C74.3545 75.2 77.8105 73.152 81.6505 72.192ZM64.8825 73.152C64.7545 72.768 64.3065 72.512 63.9225 72.448C62.3865 72.064 60.4665 73.28 59.4425 74.368C58.9305 74.88 58.4825 75.456 58.4825 76.16C58.4185 76.992 58.9945 77.696 59.6345 78.144C59.8905 78.272 60.1465 78.464 60.4025 78.528C61.2345 78.08 62.0025 77.568 62.6425 76.928C63.3465 76.224 63.9865 75.52 64.4985 74.752C64.7545 74.304 65.1385 73.728 64.8825 73.152ZM57.2025 79.488C57.9705 79.552 58.7385 79.296 59.4425 78.976C58.2265 78.272 57.2665 76.928 57.7785 75.392C57.9705 74.816 58.2905 74.368 58.6745 73.92C58.3545 74.112 58.0985 74.304 57.7785 74.56C57.0105 75.264 56.1785 76.096 55.7945 77.12C55.6025 77.632 55.5385 78.208 55.7945 78.72C56.1145 79.168 56.6905 79.424 57.2025 79.488ZM117.703 74.304C117.959 74.112 118.279 74.56 118.023 74.752C116.167 76.224 114.119 77.44 111.943 78.4C110.087 79.232 108.167 79.872 106.183 80.256C104.519 80.512 102.727 80.64 101.191 80C100.487 79.744 99.9105 79.36 99.3985 78.848C98.8225 78.144 98.5665 77.184 98.0545 76.416C97.2225 75.328 95.5585 76.288 94.5985 76.672C93.2545 77.184 91.9105 77.824 90.6305 78.592C90.1825 78.848 89.8625 78.272 90.1185 77.888C91.3985 76.288 92.4225 74.496 93.2545 72.64C93.5745 72 94.0225 70.848 93.2545 70.4C92.6145 70.016 91.5265 70.08 90.8225 70.08C88.7745 70.08 86.7905 70.464 84.8705 71.168C83.8465 73.664 82.1825 76.032 80.3265 78.016C79.4945 78.912 78.3425 80 77.0625 80.064C75.4625 80.192 75.2705 78.528 75.7825 77.376C76.0385 76.672 76.6145 76.032 77.1265 75.392C77.6385 74.752 78.2145 74.112 78.8545 73.6C80.1345 72.448 81.5425 71.552 83.0785 70.848C83.5265 70.592 84.0385 70.4 84.5505 70.208C84.7425 69.696 84.9985 69.12 85.1905 68.544C85.1905 68.352 85.2545 68.16 85.3825 67.968C85.4465 67.648 85.8305 67.776 85.7665 68.096C85.7025 68.672 85.5105 69.312 85.3185 69.952C87.7505 69.12 90.3745 68.864 92.8705 69.312C93.7025 69.44 94.3425 69.952 94.5345 70.784C94.6625 71.552 94.3425 72.384 94.0225 73.088C93.3825 74.432 92.6785 75.712 91.8465 76.928C92.6785 76.544 93.5745 76.096 94.4065 75.776C95.5585 75.328 97.0945 74.56 98.2465 75.328C99.0785 75.968 99.2705 77.056 99.8465 77.824C100.231 78.4 100.743 78.848 101.383 79.104C102.855 79.744 104.647 79.552 106.247 79.232C108.295 78.848 110.215 78.08 112.135 77.248C113.991 76.352 115.911 75.392 117.703 74.304ZM80.9025 76.096C82.0545 74.688 83.0785 73.152 83.9105 71.552C83.3985 71.744 82.8865 72 82.4385 72.32C81.1585 73.024 80.0065 73.856 78.9825 74.88C78.4705 75.392 77.9585 75.904 77.5105 76.48C77.1265 76.992 76.6785 77.568 76.4865 78.144C76.3585 78.656 76.3585 79.168 76.9345 79.168C77.4465 79.168 77.8945 78.848 78.2785 78.592C79.3025 77.952 80.1345 76.992 80.9025 76.096ZM142.526 72.192C142.782 72.128 142.91 72.512 142.654 72.576C137.662 74.432 133.182 77.568 128.062 79.04C125.95 79.616 123.517 80.064 121.405 79.488C119.677 80.32 117.245 81.088 116.029 79.232C114.685 77.312 116.925 74.944 118.333 73.792C119.677 72.704 121.47 71.808 123.261 71.68C124.03 71.488 124.798 71.424 125.502 71.808C126.462 72.256 126.974 73.216 126.59 74.24C126.206 75.264 125.438 76.16 124.734 76.928C124.03 77.696 123.261 78.336 122.43 78.848C123.646 79.04 124.925 78.848 126.078 78.656C127.998 78.272 129.854 77.568 131.646 76.8C135.229 75.2 138.686 73.152 142.526 72.192ZM125.758 73.152C125.63 72.768 125.181 72.512 124.798 72.448C123.261 72.064 121.342 73.28 120.317 74.368C119.805 74.88 119.357 75.456 119.357 76.16C119.293 76.992 119.869 77.696 120.509 78.144C120.765 78.272 121.021 78.464 121.277 78.528C122.109 78.08 122.878 77.568 123.517 76.928C124.221 76.224 124.862 75.52 125.374 74.752C125.63 74.304 126.014 73.728 125.758 73.152ZM118.077 79.488C118.845 79.552 119.613 79.296 120.317 78.976C119.101 78.272 118.141 76.928 118.653 75.392C118.845 74.816 119.165 74.368 119.549 73.92C119.229 74.112 118.973 74.304 118.653 74.56C117.885 75.264 117.053 76.096 116.669 77.12C116.477 77.632 116.413 78.208 116.669 78.72C116.989 79.168 117.565 79.424 118.077 79.488ZM153.426 71.616C153.938 72.448 152.914 73.536 152.466 74.112C151.826 74.944 151.186 75.712 150.418 76.352C148.946 77.568 147.218 78.72 145.425 79.232C144.082 79.616 142.098 79.616 141.649 78.016C141.586 77.696 142.033 77.504 142.161 77.76C142.93 79.552 145.618 78.4 146.77 77.824C148.626 76.928 150.29 75.648 151.634 74.112C151.89 73.728 152.21 73.344 152.466 72.96C152.594 72.768 152.85 72.448 152.85 72.192C152.85 71.872 152.594 71.808 152.338 71.808C151.442 71.808 150.482 72.192 149.649 72.448C147.922 73.024 146.322 73.92 144.85 74.944C141.649 77.184 139.217 80.192 137.297 83.52C136.785 84.352 136.337 85.248 135.889 86.08C135.377 87.232 134.929 88.384 134.417 89.6C132.241 95.104 130.321 100.8 128.529 106.496C128.401 106.88 127.697 106.752 127.825 106.304C128.017 105.792 128.145 105.28 128.273 104.832C129.681 100.416 130.961 96 132.625 91.648C133.329 89.92 134.097 88.128 134.929 86.4C135.889 84.224 136.913 82.048 137.937 79.936C140.625 74.624 143.634 69.44 147.474 64.896C147.602 64.704 147.922 64.96 147.793 65.152C145.81 67.84 143.954 70.592 142.226 73.472C140.945 75.712 139.729 77.952 138.577 80.192C141.137 76.736 144.273 73.792 148.434 72.128C149.33 71.744 150.29 71.488 151.25 71.296C151.954 71.104 152.978 70.848 153.426 71.616ZM182.557 74.496C182.941 74.432 183.005 75.008 182.685 75.072C181.469 75.456 180.253 75.776 179.101 76.224C178.013 76.672 176.925 77.184 175.901 77.824C174.173 78.784 172.701 80.128 170.909 80.96C169.501 81.6 167.133 82.24 165.917 80.832C165.405 80.128 165.533 79.104 165.661 78.272C165.789 77.312 166.173 76.416 166.557 75.584C167.005 74.752 167.517 73.984 168.029 73.216C167.133 73.792 166.173 74.24 165.085 74.496C163.101 75.008 161.053 75.072 159.005 74.816C159.581 75.648 159.837 76.8 159.517 77.824C159.197 79.168 158.045 80.384 156.701 80.768C155.997 80.96 155.357 80.704 155.101 80.064C154.781 79.424 154.973 78.656 155.101 77.952C155.869 74.496 158.749 72 161.501 70.016C161.757 69.824 162.013 70.208 161.821 70.464C160.605 71.488 159.261 72.576 158.173 73.792C160.413 74.24 162.845 74.24 165.021 73.6C167.005 73.088 168.605 71.872 170.205 70.656C170.589 70.336 171.037 70.976 170.717 71.296C169.373 72.832 167.965 74.496 167.069 76.352C166.685 77.184 166.429 78.08 166.365 78.912C166.301 79.424 166.237 79.936 166.557 80.32C166.877 80.704 167.325 80.832 167.773 80.832C169.565 80.896 171.165 79.936 172.573 78.976C174.109 77.952 175.581 76.864 177.245 76.096C178.909 75.328 180.701 74.624 182.557 74.496ZM158.493 78.336C159.261 76.992 158.877 75.328 157.533 74.496C156.573 75.712 155.869 77.056 155.677 78.72C155.677 79.04 155.613 79.424 155.741 79.808C155.997 80.256 156.509 80.064 156.893 79.872C157.597 79.552 158.173 79.04 158.493 78.336ZM194.888 69.44C195.016 69.376 195.144 69.568 195.08 69.696C194.568 70.4 193.672 70.912 192.968 71.36C192.2 71.936 191.432 72.448 190.728 73.024C189.128 74.176 187.592 75.456 186.056 76.8C186.184 77.12 186.312 77.376 186.376 77.632C186.952 79.104 187.784 80.832 189.192 81.664C190.408 82.304 191.816 81.728 192.584 80.64C192.712 80.448 193.032 80.576 192.968 80.832C192.712 82.048 191.432 82.944 190.216 82.944C188.808 82.944 187.72 81.856 186.952 80.832C186.248 79.808 185.736 78.656 185.352 77.504C184.584 78.208 183.88 78.912 183.176 79.616C180.936 81.984 178.76 84.544 176.968 87.232C176.84 87.424 176.584 87.232 176.648 87.04C177.48 85.376 178.44 83.712 179.528 82.24C181.192 80.128 183.048 78.208 184.968 76.416C184.52 75.008 184.264 73.536 184.072 72.064C183.88 70.464 183.88 68.8 184.008 67.2C184.008 66.88 184.456 66.88 184.456 67.2C184.392 68.992 184.648 70.848 184.968 72.64C185.16 73.664 185.416 74.752 185.736 75.776C185.992 75.52 186.312 75.264 186.632 75.008C187.912 73.856 189.256 72.832 190.664 71.808C191.368 71.36 192.072 70.848 192.776 70.4C193.416 70.016 194.12 69.504 194.888 69.44ZM241.307 68.16C241.627 68.16 241.755 68.608 241.563 68.864C238.619 72.576 235.227 76.032 231.515 79.04C230.043 81.856 229.019 84.864 228.571 88.064C228.507 88.384 227.995 88.256 227.995 87.936C228.059 86.208 228.379 84.544 228.891 82.88C229.147 82.048 229.403 81.216 229.787 80.448C228.635 81.344 227.419 82.176 226.203 83.008C225.755 83.264 225.371 82.752 225.563 82.368C226.075 81.216 226.651 80.064 227.163 78.976C227.675 77.952 228.251 76.928 228.571 75.84C228.763 75.328 228.955 74.496 228.443 74.048C227.803 73.408 226.587 73.856 225.883 74.112C225.371 74.304 224.923 74.496 224.411 74.752C224.155 75.712 223.643 76.608 223.195 77.44C222.619 78.528 221.979 79.488 221.211 80.448C219.611 82.56 217.499 84.096 214.939 84.864C214.555 84.928 214.107 84.544 214.235 84.16C214.491 83.52 214.747 82.944 215.003 82.304C214.427 82.432 213.851 82.432 213.275 82.368C212.571 82.368 211.675 82.304 211.035 81.92C209.563 81.088 211.355 79.232 212.059 78.4C213.915 76.16 216.155 73.856 218.715 72.32C219.355 72 219.995 71.68 220.699 71.424C221.339 71.168 222.171 70.912 222.875 70.976C224.155 71.04 224.731 72.448 224.667 73.6C225.563 73.152 226.587 72.704 227.611 72.768C228.443 72.832 229.275 73.216 229.595 73.984C229.851 74.688 229.723 75.52 229.467 76.224C229.083 77.312 228.507 78.336 228.059 79.36C227.739 79.936 227.483 80.576 227.163 81.216C228.379 80.32 229.531 79.488 230.683 78.592C231.515 77.056 232.475 75.648 233.499 74.368C234.587 73.024 235.803 71.744 237.083 70.592C238.235 69.568 239.643 68.16 241.307 68.16ZM211.611 81.536C212.635 82.176 213.851 82.368 215.067 82.24C215.643 81.024 216.411 79.872 217.371 78.848C218.651 77.376 220.123 76.16 221.787 75.136C222.427 74.688 223.067 74.368 223.771 74.048C223.899 73.536 223.899 72.96 223.707 72.512C223.387 71.744 222.747 71.68 222.043 71.872C220.827 72.128 219.675 72.64 218.651 73.344C216.539 74.688 214.683 76.544 213.083 78.4C212.635 78.912 212.187 79.424 211.803 79.936C211.611 80.192 211.355 80.448 211.227 80.768C211.099 81.216 211.291 81.344 211.611 81.536ZM222.235 77.312C222.619 76.672 222.939 76.032 223.259 75.392C222.491 75.776 221.787 76.288 221.147 76.8C218.843 78.464 216.859 80.768 215.707 83.392C217.627 82.624 219.227 81.344 220.571 79.744C221.211 78.976 221.787 78.144 222.235 77.312ZM234.139 75.712C236.379 73.664 238.427 71.488 240.283 69.184C239.771 69.44 239.259 69.824 238.811 70.208C238.043 70.784 237.339 71.424 236.699 72.128C235.227 73.536 233.947 75.136 232.859 76.8C233.243 76.416 233.691 76.096 234.139 75.712ZM269.864 73.216C270.184 72.96 270.504 73.344 270.312 73.664C269.032 75.264 267.432 76.608 265.64 77.632C264.168 78.528 262.504 79.168 260.776 79.616C259.432 79.936 258.024 80.192 256.616 79.808C255.528 79.488 254.44 78.848 254.12 77.696C253.928 77.248 253.928 76.8 254.056 76.352C253.224 77.056 252.392 77.696 251.496 78.272C250.024 79.168 248.424 79.808 246.76 80.192C245.352 80.512 243.624 80.64 242.344 79.744C240.68 78.592 240.936 76.544 241.704 74.88C242.152 73.984 242.728 73.216 243.368 72.448C243.944 71.808 244.712 71.104 245.608 70.912C245.672 70.848 245.736 70.976 245.672 71.04C245.096 71.808 244.328 72.32 243.752 73.088C243.112 73.856 242.6 74.816 242.216 75.776C241.896 76.608 241.768 77.568 242.216 78.4C242.6 78.976 243.176 79.296 243.816 79.424C245.224 79.744 246.76 79.296 248.104 78.848C251.048 77.888 253.288 75.712 255.72 73.792C256.168 73.408 256.872 74.048 256.36 74.496C255.528 75.328 254.312 76.864 255.4 78.016C257 79.808 260.072 78.848 261.992 78.272C265 77.248 267.56 75.392 269.864 73.216ZM299.366 40.96C299.75 42.368 299.238 43.968 298.79 45.248C297.702 48.128 295.782 50.624 293.734 52.928C291.686 55.232 289.382 57.472 287.014 59.456C282.79 62.912 278.182 65.856 273.19 68.032C271.846 70.656 270.566 73.408 269.606 76.288C270.374 75.456 271.27 74.688 272.166 74.112C272.934 73.6 273.702 73.152 274.534 72.832C275.174 72.576 275.878 72.32 276.518 72.384C278.374 72.576 278.118 74.816 277.606 76.096C276.966 77.76 275.814 78.912 274.15 79.68C272.614 80.448 270.758 80.576 269.35 79.36C269.03 79.04 269.478 78.528 269.862 78.784C271.27 79.68 273.062 79.296 274.406 78.464C275.686 77.696 276.518 76.608 276.902 75.2C277.03 74.752 277.286 73.728 276.774 73.408C276.326 73.152 275.686 73.344 275.302 73.536C272.614 74.496 270.31 76.48 268.774 78.912C268.518 79.36 267.75 79.04 267.878 78.528C268.134 77.696 268.39 76.864 268.646 76.096C269.542 73.472 270.63 70.976 271.782 68.544C271.526 68.672 271.334 68.8 271.078 68.864C270.95 68.928 270.886 68.736 271.014 68.672C271.334 68.544 271.654 68.416 271.974 68.224C273.766 64.704 275.75 61.312 277.862 57.984C281.062 52.8 284.582 47.744 289.19 43.776C290.342 42.752 291.494 41.856 292.774 41.088C293.926 40.32 295.142 39.488 296.55 39.296C297.83 39.168 299.046 39.68 299.366 40.96ZM298.406 43.776C298.726 42.624 299.11 40.512 297.574 40.128C296.294 39.808 294.95 40.704 293.862 41.344C291.43 42.88 289.19 44.736 287.206 46.848C283.174 51.072 280.038 56.064 277.03 61.12C275.75 63.232 274.534 65.344 273.446 67.52C278.566 64.896 283.43 61.696 287.782 57.856C289.958 55.872 292.07 53.76 293.926 51.456C295.846 49.216 297.702 46.656 298.406 43.776ZM306.284 75.584C306.54 75.456 306.796 75.84 306.54 75.968C305.708 76.352 304.94 76.864 304.172 77.312C298.924 80.384 294.188 84.096 289.9 88.32C289.068 91.2 288.236 94.144 287.404 97.024C286.188 101.184 284.78 105.344 283.116 109.44C281.452 113.344 279.916 117.44 277.292 120.832C276.204 122.368 274.796 123.904 272.876 124.224C272.044 124.352 271.212 124.224 270.572 123.712C269.932 123.264 269.676 122.496 269.548 121.728C269.292 119.808 269.932 117.76 270.444 115.968C271.148 113.792 272.044 111.744 273.068 109.76C276.78 102.528 281.58 95.872 287.148 89.92C287.724 89.28 288.364 88.64 288.94 88.064C290.156 83.968 291.5 79.872 293.228 76.032C292.716 76.608 292.204 77.12 291.692 77.632C290.796 78.528 289.836 79.36 288.876 80.128C287.916 80.832 286.956 81.536 285.932 82.048C284.524 82.816 281.772 83.328 281.388 81.152C281.132 79.936 281.9 78.592 282.412 77.568C282.924 76.48 283.628 75.456 284.396 74.432C285.1 73.408 285.932 72.384 286.828 71.424C287.276 70.976 287.724 70.528 288.3 70.144C288.748 69.76 289.324 69.504 289.9 69.248C290.028 69.248 290.092 69.312 290.028 69.376C289.516 69.824 289.068 70.336 288.556 70.784C288.044 71.168 287.596 71.616 287.212 72.064C286.316 73.024 285.484 74.176 284.716 75.264C284.14 76.096 283.564 77.056 283.116 78.016C282.86 78.528 282.604 79.104 282.412 79.68C282.22 80.192 282.028 80.832 282.348 81.344C282.732 82.048 283.756 81.856 284.46 81.728C285.42 81.408 286.252 80.832 287.02 80.256C290.732 77.696 293.804 74.304 296.236 70.464C296.556 69.952 297.388 70.4 297.068 70.976C296.556 71.808 296.044 72.64 295.596 73.472C293.356 77.632 291.756 82.112 290.412 86.656C292.204 84.864 294.188 83.2 296.172 81.664C297.772 80.448 299.436 79.296 301.1 78.208C302.764 77.184 304.556 76.416 306.284 75.584ZM284.012 104.32C285.42 100.48 286.508 96.576 287.66 92.672C287.916 91.712 288.172 90.752 288.492 89.792C287.66 90.56 286.892 91.456 286.124 92.288C280.94 98.112 276.268 104.768 273.004 111.872C272.108 113.856 271.276 115.968 270.828 118.144C270.636 119.04 270.444 120 270.444 120.96C270.444 121.664 270.508 122.496 271.148 123.008C271.852 123.52 272.876 123.328 273.58 123.008C274.476 122.624 275.116 121.984 275.756 121.28C277.1 119.744 278.124 117.952 279.084 116.16C279.98 114.304 280.748 112.384 281.58 110.528C282.476 108.48 283.308 106.432 284.012 104.32ZM347.265 74.304C347.521 74.112 347.841 74.56 347.585 74.752C345.729 76.224 343.681 77.44 341.505 78.4C339.649 79.232 337.729 79.872 335.745 80.256C334.081 80.512 332.289 80.64 330.753 80C330.049 79.744 329.473 79.36 328.961 78.848C328.385 78.144 328.129 77.184 327.617 76.416C326.785 75.328 325.121 76.288 324.161 76.672C322.817 77.184 321.473 77.824 320.193 78.592C319.745 78.848 319.425 78.272 319.681 77.888C320.961 76.288 321.985 74.496 322.817 72.64C323.137 72 323.585 70.848 322.817 70.4C322.177 70.016 321.089 70.08 320.385 70.08C318.337 70.08 316.353 70.464 314.433 71.168C313.409 73.664 311.745 76.032 309.889 78.016C309.057 78.912 307.905 80 306.625 80.064C305.025 80.192 304.833 78.528 305.345 77.376C305.601 76.672 306.177 76.032 306.689 75.392C307.201 74.752 307.777 74.112 308.417 73.6C309.697 72.448 311.105 71.552 312.641 70.848C313.089 70.592 313.601 70.4 314.113 70.208C314.305 69.696 314.561 69.12 314.753 68.544C314.753 68.352 314.817 68.16 314.945 67.968C315.009 67.648 315.393 67.776 315.329 68.096C315.265 68.672 315.073 69.312 314.881 69.952C317.313 69.12 319.937 68.864 322.433 69.312C323.265 69.44 323.905 69.952 324.097 70.784C324.225 71.552 323.905 72.384 323.585 73.088C322.945 74.432 322.241 75.712 321.409 76.928C322.241 76.544 323.137 76.096 323.969 75.776C325.121 75.328 326.657 74.56 327.809 75.328C328.641 75.968 328.833 77.056 329.409 77.824C329.793 78.4 330.305 78.848 330.945 79.104C332.417 79.744 334.209 79.552 335.809 79.232C337.857 78.848 339.777 78.08 341.697 77.248C343.553 76.352 345.473 75.392 347.265 74.304ZM310.465 76.096C311.617 74.688 312.641 73.152 313.473 71.552C312.961 71.744 312.449 72 312.001 72.32C310.721 73.024 309.569 73.856 308.545 74.88C308.033 75.392 307.521 75.904 307.073 76.48C306.689 76.992 306.241 77.568 306.049 78.144C305.921 78.656 305.921 79.168 306.497 79.168C307.009 79.168 307.457 78.848 307.841 78.592C308.865 77.952 309.697 76.992 310.465 76.096ZM115.999 114.944C116.319 114.944 116.319 115.392 116.063 115.52C114.015 116.096 112.159 117.184 110.303 118.272C108.639 119.232 106.847 120.192 104.927 120.768C103.391 121.152 100.575 121.728 100.063 119.552C99.743 117.952 100.639 116.16 101.407 114.816C101.599 114.56 101.727 114.304 101.919 114.048C101.279 114.496 100.575 114.88 99.871 115.2C99.103 115.584 98.079 116.096 97.183 115.776C96.543 115.52 96.223 114.944 96.159 114.24C96.095 113.408 96.479 112.576 96.863 111.808C97.119 111.36 97.439 110.976 97.695 110.528C97.951 110.08 97.951 109.632 97.375 109.568C96.543 109.44 95.519 109.888 94.751 110.144C93.855 110.464 93.023 110.912 92.255 111.424C91.487 111.936 90.783 112.512 90.207 113.152C89.823 113.536 89.439 114.048 89.311 114.496C89.119 115.264 89.823 115.776 90.463 115.456C90.527 115.392 90.527 115.456 90.527 115.52C89.823 115.968 89.055 115.584 88.863 114.816C88.671 113.792 89.503 112.896 90.143 112.256C91.487 110.784 93.279 109.76 95.135 109.184C95.967 108.864 97.055 108.544 97.951 108.864C98.847 109.184 98.847 110.144 98.463 110.912C98.015 111.872 97.247 112.704 97.055 113.792C96.991 114.176 97.055 114.688 97.439 114.88C97.951 115.136 98.655 114.752 99.103 114.56C101.215 113.6 103.071 112.192 104.863 110.72C105.311 110.4 106.015 111.04 105.503 111.424C104.095 112.512 102.879 114.048 101.983 115.648C101.599 116.352 101.279 117.056 101.087 117.824C100.895 118.464 100.767 119.424 101.279 119.936C101.919 120.512 103.327 120.192 104.095 120C104.991 119.808 105.823 119.552 106.655 119.168C108.255 118.464 109.791 117.504 111.391 116.672C112.863 115.904 114.335 115.136 115.999 114.944ZM138.347 115.584C138.603 115.456 138.859 115.84 138.603 115.968C137.771 116.352 137.003 116.864 136.235 117.312C130.987 120.384 126.251 124.096 121.963 128.32C121.13 131.2 120.299 134.144 119.467 137.024C118.25 141.184 116.842 145.344 115.178 149.44C113.514 153.344 111.978 157.44 109.354 160.832C108.266 162.368 106.858 163.904 104.938 164.224C104.106 164.352 103.274 164.224 102.634 163.712C101.994 163.264 101.738 162.496 101.61 161.728C101.354 159.808 101.994 157.76 102.506 155.968C103.21 153.792 104.106 151.744 105.13 149.76C108.842 142.528 113.642 135.872 119.211 129.92C119.786 129.28 120.427 128.64 121.003 128.064C122.219 123.968 123.562 119.872 125.291 116.032C124.779 116.608 124.266 117.12 123.755 117.632C122.859 118.528 121.898 119.36 120.938 120.128C119.978 120.832 119.018 121.536 117.994 122.048C116.586 122.816 113.834 123.328 113.45 121.152C113.194 119.936 113.962 118.592 114.474 117.568C114.986 116.48 115.69 115.456 116.458 114.432C117.162 113.408 117.994 112.384 118.89 111.424C119.339 110.976 119.786 110.528 120.362 110.144C120.811 109.76 121.386 109.504 121.963 109.248C122.09 109.248 122.155 109.312 122.09 109.376C121.579 109.824 121.13 110.336 120.618 110.784C120.106 111.168 119.658 111.616 119.274 112.064C118.378 113.024 117.546 114.176 116.778 115.264C116.202 116.096 115.626 117.056 115.178 118.016C114.922 118.528 114.666 119.104 114.474 119.68C114.282 120.192 114.09 120.832 114.41 121.344C114.794 122.048 115.818 121.856 116.522 121.728C117.482 121.408 118.314 120.832 119.082 120.256C122.795 117.696 125.866 114.304 128.299 110.464C128.619 109.952 129.451 110.4 129.131 110.976C128.619 111.808 128.107 112.64 127.659 113.472C125.418 117.632 123.819 122.112 122.475 126.656C124.266 124.864 126.251 123.2 128.234 121.664C129.835 120.448 131.499 119.296 133.163 118.208C134.826 117.184 136.619 116.416 138.347 115.584ZM116.074 144.32C117.482 140.48 118.57 136.576 119.723 132.672C119.978 131.712 120.234 130.752 120.555 129.792C119.723 130.56 118.954 131.456 118.186 132.288C113.002 138.112 108.33 144.768 105.066 151.872C104.17 153.856 103.338 155.968 102.89 158.144C102.698 159.04 102.506 160 102.506 160.96C102.506 161.664 102.57 162.496 103.21 163.008C103.914 163.52 104.938 163.328 105.642 163.008C106.538 162.624 107.178 161.984 107.818 161.28C109.162 159.744 110.186 157.952 111.146 156.16C112.042 154.304 112.81 152.384 113.642 150.528C114.538 148.48 115.37 146.432 116.074 144.32ZM169.679 80.96C170.063 82.368 169.551 83.968 169.103 85.248C168.015 88.128 166.095 90.624 164.047 92.928C161.999 95.232 159.694 97.472 157.326 99.456C153.103 102.912 148.495 105.856 143.503 108.032C142.158 110.656 140.878 113.408 139.918 116.288C140.686 115.456 141.582 114.688 142.478 114.112C143.247 113.6 144.015 113.152 144.846 112.832C145.487 112.576 146.191 112.32 146.831 112.384C148.687 112.576 148.431 114.816 147.918 116.096C147.279 117.76 146.127 118.912 144.463 119.68C142.927 120.448 141.07 120.576 139.662 119.36C139.342 119.04 139.79 118.528 140.174 118.784C141.582 119.68 143.375 119.296 144.719 118.464C145.999 117.696 146.831 116.608 147.215 115.2C147.343 114.752 147.599 113.728 147.087 113.408C146.639 113.152 145.999 113.344 145.615 113.536C142.927 114.496 140.622 116.48 139.086 118.912C138.83 119.36 138.062 119.04 138.19 118.528C138.446 117.696 138.702 116.864 138.958 116.096C139.854 113.472 140.942 110.976 142.095 108.544C141.839 108.672 141.646 108.8 141.39 108.864C141.262 108.928 141.198 108.736 141.326 108.672C141.646 108.544 141.967 108.416 142.286 108.224C144.079 104.704 146.062 101.312 148.175 97.984C151.375 92.8 154.895 87.744 159.503 83.776C160.655 82.752 161.807 81.856 163.087 81.088C164.239 80.32 165.455 79.488 166.863 79.296C168.143 79.168 169.359 79.68 169.679 80.96ZM168.719 83.776C169.039 82.624 169.423 80.512 167.887 80.128C166.607 79.808 165.263 80.704 164.175 81.344C161.743 82.88 159.503 84.736 157.519 86.848C153.487 91.072 150.351 96.064 147.343 101.12C146.062 103.232 144.846 105.344 143.759 107.52C148.878 104.896 153.743 101.696 158.095 97.856C160.271 95.872 162.383 93.76 164.239 91.456C166.159 89.216 168.015 86.656 168.719 83.776ZM171.492 114.432C171.748 114.304 172.003 114.624 171.812 114.816C170.852 115.968 169.316 116.864 167.972 117.504C166.564 118.208 165.092 118.784 163.556 119.168C161.444 119.808 159.076 120.128 156.836 119.936C155.171 119.872 153.187 119.296 152.739 117.504C152.099 114.816 154.915 112.96 156.964 112.064C158.115 111.616 159.78 111.168 160.931 111.808C162.02 112.384 161.38 113.6 160.74 114.24C160.612 114.304 160.548 114.176 160.612 114.048C161.06 113.472 161.38 112.512 160.356 112.32C159.715 112.128 158.948 112.32 158.308 112.512C157.092 112.896 155.875 113.6 154.851 114.432C154.147 115.136 153.507 115.968 153.635 117.056C153.699 117.696 154.083 118.208 154.659 118.528C155.939 119.168 157.539 119.104 158.884 119.04C161.06 118.912 163.236 118.464 165.284 117.696C166.372 117.248 167.46 116.736 168.484 116.224C169.508 115.648 170.468 114.944 171.492 114.432ZM211.265 114.304C211.521 114.112 211.841 114.56 211.585 114.752C209.729 116.224 207.681 117.44 205.505 118.4C203.649 119.232 201.729 119.872 199.745 120.256C198.081 120.512 196.289 120.64 194.753 120C194.049 119.744 193.473 119.36 192.961 118.848C192.385 118.144 192.129 117.184 191.617 116.416C190.785 115.328 189.121 116.288 188.161 116.672C186.817 117.184 185.473 117.824 184.193 118.592C183.745 118.848 183.425 118.272 183.681 117.888C184.961 116.288 185.985 114.496 186.817 112.64C187.137 112 187.585 110.848 186.817 110.4C186.177 110.016 185.089 110.08 184.385 110.08C182.337 110.08 180.353 110.464 178.433 111.168C177.409 113.664 175.745 116.032 173.889 118.016C173.057 118.912 171.905 120 170.625 120.064C169.025 120.192 168.833 118.528 169.345 117.376C169.601 116.672 170.177 116.032 170.689 115.392C171.201 114.752 171.777 114.112 172.417 113.6C173.697 112.448 175.105 111.552 176.641 110.848C177.089 110.592 177.601 110.4 178.113 110.208C178.305 109.696 178.561 109.12 178.753 108.544C178.753 108.352 178.817 108.16 178.945 107.968C179.009 107.648 179.393 107.776 179.329 108.096C179.265 108.672 179.073 109.312 178.881 109.952C181.313 109.12 183.937 108.864 186.433 109.312C187.265 109.44 187.905 109.952 188.097 110.784C188.225 111.552 187.905 112.384 187.585 113.088C186.945 114.432 186.241 115.712 185.409 116.928C186.241 116.544 187.137 116.096 187.969 115.776C189.121 115.328 190.657 114.56 191.809 115.328C192.641 115.968 192.833 117.056 193.409 117.824C193.793 118.4 194.305 118.848 194.945 119.104C196.417 119.744 198.209 119.552 199.809 119.232C201.857 118.848 203.777 118.08 205.697 117.248C207.553 116.352 209.473 115.392 211.265 114.304ZM174.465 116.096C175.617 114.688 176.641 113.152 177.473 111.552C176.961 111.744 176.449 112 176.001 112.32C174.721 113.024 173.569 113.856 172.545 114.88C172.033 115.392 171.521 115.904 171.073 116.48C170.689 116.992 170.241 117.568 170.049 118.144C169.921 118.656 169.921 119.168 170.497 119.168C171.009 119.168 171.457 118.848 171.841 118.592C172.865 117.952 173.697 116.992 174.465 116.096ZM241.366 80.96C241.75 82.368 241.238 83.968 240.79 85.248C239.702 88.128 237.782 90.624 235.734 92.928C233.686 95.232 231.382 97.472 229.014 99.456C224.79 102.912 220.182 105.856 215.19 108.032C213.846 110.656 212.566 113.408 211.606 116.288C212.374 115.456 213.27 114.688 214.166 114.112C214.934 113.6 215.702 113.152 216.534 112.832C217.174 112.576 217.878 112.32 218.518 112.384C220.374 112.576 220.118 114.816 219.606 116.096C218.966 117.76 217.814 118.912 216.15 119.68C214.614 120.448 212.758 120.576 211.35 119.36C211.03 119.04 211.478 118.528 211.862 118.784C213.27 119.68 215.062 119.296 216.406 118.464C217.686 117.696 218.518 116.608 218.902 115.2C219.03 114.752 219.286 113.728 218.774 113.408C218.326 113.152 217.686 113.344 217.302 113.536C214.614 114.496 212.31 116.48 210.774 118.912C210.518 119.36 209.75 119.04 209.878 118.528C210.134 117.696 210.39 116.864 210.646 116.096C211.542 113.472 212.63 110.976 213.782 108.544C213.526 108.672 213.334 108.8 213.078 108.864C212.95 108.928 212.886 108.736 213.014 108.672C213.334 108.544 213.654 108.416 213.974 108.224C215.766 104.704 217.75 101.312 219.862 97.984C223.062 92.8 226.582 87.744 231.19 83.776C232.342 82.752 233.494 81.856 234.774 81.088C235.926 80.32 237.142 79.488 238.55 79.296C239.83 79.168 241.046 79.68 241.366 80.96ZM240.406 83.776C240.726 82.624 241.11 80.512 239.574 80.128C238.294 79.808 236.95 80.704 235.862 81.344C233.43 82.88 231.19 84.736 229.206 86.848C225.174 91.072 222.038 96.064 219.03 101.12C217.75 103.232 216.534 105.344 215.446 107.52C220.566 104.896 225.43 101.696 229.782 97.856C231.958 95.872 234.07 93.76 235.926 91.456C237.846 89.216 239.702 86.656 240.406 83.776ZM250.155 115.712C250.539 115.584 250.731 116.032 250.411 116.288C249.643 116.8 248.683 117.248 247.787 117.632C246.955 118.016 246.123 118.4 245.291 118.72C243.691 119.296 242.091 119.744 240.427 119.936C239.019 120.128 237.355 120.256 236.011 119.616C234.539 118.912 234.475 117.504 235.051 116.096C234.091 116.864 233.131 117.568 232.107 118.208C231.147 118.72 230.123 119.168 229.099 119.488C228.075 119.744 226.923 120.064 225.835 119.808C223.403 119.232 224.427 116.416 225.643 115.136C226.987 113.792 228.651 112.832 230.571 112.384C232.491 111.936 235.051 111.552 236.203 113.6C236.203 113.664 236.203 113.728 236.203 113.792C236.523 113.472 236.907 113.152 237.291 112.832C237.355 112.768 237.419 112.704 237.419 112.704C237.931 112.256 238.571 112.96 238.123 113.344C238.059 113.472 237.995 113.536 237.867 113.6C236.779 114.56 235.755 116.096 235.691 117.568C235.627 119.36 238.443 119.104 239.595 118.976C241.451 118.848 243.243 118.336 244.971 117.696C245.867 117.376 246.763 117.056 247.595 116.672C248.427 116.352 249.323 115.904 250.155 115.712ZM228.011 118.784C231.275 118.08 233.707 116.032 236.075 113.856C236.011 113.92 235.947 113.92 235.883 113.792C235.179 112.896 234.027 112.704 233.003 112.768C231.915 112.832 230.827 113.088 229.867 113.408C228.395 113.92 226.859 114.88 225.963 116.16C225.515 116.736 224.875 117.824 225.387 118.528C225.899 119.296 227.243 118.976 228.011 118.784Z" fill="white"/>
</svg>
