<svg width="460" height="48" viewBox="0 0 460 48" fill="none" xmlns="http://www.w3.org/2000/svg">
<path d="M42.0153 42.24L38.3033 47.232L20.1273 25.6L2.07925 47.04L1.37525 46.4L19.4873 24.768L2.91125 5.056L6.62325 0.064003L23.3913 20.096L40.2233 0.064003L40.9913 0.704002L24.0953 20.928L42.0153 42.24ZM81.9878 1.088L88.0038 0.064003V46.144L81.9878 47.104V11.2L54.9158 45.952V46.144L48.9638 47.104V1.088L54.9158 0.064003V44.352L81.9878 9.536V1.088ZM126.429 1.088L132.445 0.064003V6.08L126.429 7.104V2.112H116.445V46.144L110.429 47.104V2.112H100.381V6.08L94.4288 7.104V1.088L100.381 0.064003V1.088H110.429L116.445 0.064003V1.088H126.429ZM183.704 1.088L189.72 0.064003V46.144L183.704 47.104V1.088ZM164.696 19.136C173.656 19.136 181.72 22.912 181.72 33.088C181.72 43.328 174.296 47.104 157.72 47.104C152.6 47.104 144.664 46.144 144.664 46.144L138.712 47.104V1.088L144.664 0.064003V23.04C152.024 22.464 156.952 19.136 164.696 19.136ZM158.68 46.144C171.416 46.144 175.704 39.488 175.704 33.152C175.704 25.152 170.648 20.544 164.696 20.096C156.952 20.096 152.024 23.488 144.664 24V45.12C144.664 45.12 153.624 46.144 158.68 46.144ZM253.973 19.84C259.989 21.376 264.597 25.472 264.597 33.088C264.597 43.328 257.173 47.104 240.597 47.104C235.477 47.104 227.541 46.144 227.541 46.144L221.589 47.104V1.088L227.541 0.064003H244.565C252.437 0.064003 260.629 2.624 260.629 10.368C260.629 16.576 257.237 19.136 253.973 19.84ZM243.605 1.088H227.541V23.04C234.581 22.464 239.445 19.392 246.741 19.136L246.613 19.072C251.733 19.072 254.613 15.232 254.613 10.112C254.613 3.648 248.725 1.088 243.605 1.088ZM241.557 46.144C254.293 46.144 258.581 39.488 258.581 33.088C258.581 25.152 253.525 20.544 247.573 20.096C239.829 20.096 234.901 23.488 227.541 24V45.12C227.541 45.12 236.501 46.144 241.557 46.144ZM297.799 1.088L303.751 0.064003V6.08L297.799 7.104V2.112H278.727V23.104C284.999 22.72 290.439 19.136 296.775 19.136V20.096C290.439 20.096 284.999 23.68 278.727 24.064V45.12H297.799V43.136L303.751 42.112V46.144L297.799 47.104V46.144H278.727L272.775 47.104V1.088L278.727 0.064003V1.088H297.799ZM346.664 37.12L348.392 40.32C343.656 44.864 337.256 47.36 330.664 47.104C317.672 47.104 306.664 39.104 306.664 23.104C306.664 7.104 317.672 0.064003 330.664 0.064003C335.976 0 341.16 1.472 345.512 4.48L343.784 8.512C340.136 3.904 334.568 1.152 328.68 1.088C316.648 1.088 312.616 12.096 312.616 23.104C312.616 39.104 323.624 46.144 332.648 46.144C338.664 46.016 344.04 42.496 346.664 37.12ZM387.924 1.088L393.94 0.064003V46.144L387.924 47.104V20.096C378.452 20.096 370.324 24.128 360.852 24.128V46.144L354.9 47.104V1.088L360.852 0.064003V23.104C370.324 23.104 378.452 19.136 387.924 19.136V1.088ZM448.829 1.088L454.845 0.064003V46.144L448.829 47.104V1.088ZM429.821 19.136C438.781 19.136 446.845 22.912 446.845 33.088C446.845 43.328 439.421 47.104 422.845 47.104C417.725 47.104 409.789 46.144 409.789 46.144L403.837 47.104V1.088L409.789 0.064003V23.04C417.149 22.464 422.077 19.136 429.821 19.136ZM423.805 46.144C436.541 46.144 440.829 39.488 440.829 33.152C440.829 25.152 435.773 20.544 429.821 20.096C422.077 20.096 417.149 23.488 409.789 24V45.12C409.789 45.12 418.749 46.144 423.805 46.144Z" fill="#1F2D1A"/>
</svg>
