<svg width="460" height="48" viewBox="0 0 460 48" fill="none" xmlns="http://www.w3.org/2000/svg">
<path d="M83.4528 42.176L79.7408 47.168L61.5648 25.536L43.5168 46.976L42.8128 46.336L60.9248 24.704L44.3488 4.99204L48.0608 3.8147e-05L64.8288 20.032L81.6608 3.8147e-05L82.4288 0.640038L65.5328 20.864L83.4528 42.176ZM123.425 1.02404L129.441 3.8147e-05V46.08L123.425 47.04V11.136L96.3533 45.888V46.08L90.4013 47.04V1.02404L96.3533 3.8147e-05V44.288L123.425 9.47204V1.02404ZM167.866 1.02404L173.882 3.8147e-05V6.01604L167.866 7.04004V2.04804H157.882V46.08L151.866 47.04V2.04804H141.818V6.01604L135.866 7.04004V1.02404L141.818 3.8147e-05V1.02404H151.866L157.882 3.8147e-05V1.02404H167.866ZM225.142 1.02404L231.158 3.8147e-05V46.08L225.142 47.04V1.02404ZM206.134 19.072C215.094 19.072 223.158 22.848 223.158 33.024C223.158 43.264 215.734 47.04 199.158 47.04C194.038 47.04 186.102 46.08 186.102 46.08L180.15 47.04V1.02404L186.102 3.8147e-05V22.976C193.462 22.4 198.39 19.072 206.134 19.072ZM200.118 46.08C212.854 46.08 217.142 39.424 217.142 33.088C217.142 25.088 212.086 20.48 206.134 20.032C198.39 20.032 193.462 23.424 186.102 23.936V45.056C186.102 45.056 195.062 46.08 200.118 46.08ZM290.098 1.02404L296.114 3.8147e-05V46.08L290.098 47.04V2.04804H269.938C269.426 5.18404 268.082 16 268.082 35.072C268.082 43.072 264.05 47.04 259.058 47.04L258.098 46.08C263.09 46.08 267.058 43.072 267.058 34.048C267.058 13.056 269.106 1.02404 269.106 1.02404H290.098ZM331.049 1.02404L337.001 3.8147e-05V6.01604L331.049 7.04004V2.04804H311.977V23.04C318.249 22.656 323.689 19.072 330.025 19.072V20.032C323.689 20.032 318.249 23.616 311.977 24V45.056H331.049V43.072L337.001 42.048V46.08L331.049 47.04V46.08H311.977L306.025 47.04V1.02404L311.977 3.8147e-05V1.02404H331.049ZM372.304 1.02404L378.32 3.8147e-05V6.01604L372.304 7.04004V2.04804H362.32V46.08L356.304 47.04V2.04804H346.256V6.01604L340.304 7.04004V1.02404L346.256 3.8147e-05V1.02404H356.304L362.32 3.8147e-05V1.02404H372.304ZM412.391 47.296L405.095 31.232C396.519 31.616 388.903 35.008 380.199 35.2L374.823 47.296L373.927 46.912L392.871 4.28804L392.615 3.64804L393.447 3.00804L397.543 3.8147e-05L417.319 43.648L412.391 47.296ZM380.647 34.176C389.031 33.92 396.391 30.72 404.647 30.272L393.447 5.50404L380.647 34.176Z" fill="#1F2D1A"/>
</svg>
