<svg width="421" height="48" viewBox="0 0 421 48" fill="none" xmlns="http://www.w3.org/2000/svg">
<path d="M40.64 42.176L36.928 47.168L18.752 25.536L0.704006 46.976L5.96046e-06 46.336L18.112 24.704L1.53601 4.99204L5.24801 3.8147e-05L22.016 20.032L38.848 3.8147e-05L39.616 0.640038L22.72 20.864L40.64 42.176ZM80.6125 1.02404L86.6285 3.8147e-05V46.08L80.6125 47.04V11.136L53.5405 45.888V46.08L47.5885 47.04V1.02404L53.5405 3.8147e-05V44.288L80.6125 9.47204V1.02404ZM125.054 1.02404L131.07 3.8147e-05V6.01604L125.054 7.04004V2.04804H115.07V46.08L109.054 47.04V2.04804H99.0055V6.01604L93.0535 7.04004V1.02404L99.0055 3.8147e-05V1.02404H109.054L115.07 3.8147e-05V1.02404H125.054ZM182.329 1.02404L188.345 3.8147e-05V46.08L182.329 47.04V1.02404ZM163.321 19.072C172.281 19.072 180.345 22.848 180.345 33.024C180.345 43.264 172.921 47.04 156.345 47.04C151.225 47.04 143.289 46.08 143.289 46.08L137.337 47.04V1.02404L143.289 3.8147e-05V22.976C150.649 22.4 155.577 19.072 163.321 19.072ZM157.305 46.08C170.041 46.08 174.329 39.424 174.329 33.088C174.329 25.088 169.273 20.48 163.321 20.032C155.577 20.032 150.649 23.424 143.289 23.936V45.056C143.289 45.056 152.249 46.08 157.305 46.08ZM245.878 19.264C251.318 20.992 255.35 24.96 255.35 32.064C255.35 42.496 244.726 47.04 233.27 47.04C221.238 47.04 216.31 41.856 216.31 41.856L217.59 39.232C221.75 43.456 227.382 45.888 233.27 46.08C243.446 46.08 248.31 38.592 248.31 32.064C248.31 23.424 242.742 19.008 236.214 19.008H229.302V18.048H237.494C242.742 18.048 246.326 15.232 246.326 10.048C246.326 3.52004 239.478 1.02404 231.99 1.02404C228.086 0.960037 224.246 2.43204 221.494 5.24804L220.214 2.62404C220.214 2.62404 223.798 3.8147e-05 233.27 3.8147e-05C243.446 3.8147e-05 252.342 2.17604 252.342 10.048C252.342 15.936 249.078 18.368 245.878 19.264ZM296.8 1.02404L302.816 3.8147e-05V46.08L296.8 47.04V11.136L269.728 45.888V46.08L263.776 47.04V1.02404L269.728 3.8147e-05V44.288L296.8 9.47204V1.02404ZM353.863 1.02404L359.879 3.8147e-05V46.08L353.863 47.04V3.26404L336.967 32.576L337.543 33.664L335.815 34.624L318.791 5.18404V46.08L312.839 47.04V1.02404L318.791 3.8147e-05V1.15204L336.391 31.552L353.863 1.28004V1.02404ZM414.829 1.02404L420.845 3.8147e-05V46.08L414.829 47.04V1.02404ZM395.821 19.072C404.781 19.072 412.845 22.848 412.845 33.024C412.845 43.264 405.421 47.04 388.845 47.04C383.725 47.04 375.789 46.08 375.789 46.08L369.837 47.04V1.02404L375.789 3.8147e-05V22.976C383.149 22.4 388.077 19.072 395.821 19.072ZM389.805 46.08C402.541 46.08 406.829 39.424 406.829 33.088C406.829 25.088 401.773 20.48 395.821 20.032C388.077 20.032 383.149 23.424 375.789 23.936V45.056C375.789 45.056 384.749 46.08 389.805 46.08Z" fill="#1F2D1A"/>
</svg>
